<!DOCTYPE svg PUBLIC "-//W3C//DTD SVG 20010904//EN" "http://www.w3.org/TR/2001/REC-SVG-20010904/DTD/svg10.dtd">
<svg version="1.0" xmlns="http://www.w3.org/2000/svg" width="62px" height="49px" viewBox="0 0 620 490" preserveAspectRatio="xMidYMid meet">
<g id="layer101" fill="#1e0d00" stroke="none">
 <path d="M201 459 c-127 -63 -174 -189 -115 -307 45 -91 131 -142 236 -142 96 0 130 14 182 71 88 98 89 217 2 316 -83 95 -194 117 -305 62z"/>
 </g>
<g id="layer102" fill="#853d00" stroke="none">
 <path d="M227 466 c-88 -33 -145 -102 -154 -188 -8 -80 11 -133 66 -188 59 -59 127 -84 211 -78 234 17 289 335 77 445 -43 22 -152 27 -200 9z"/>
 </g>
<g id="layer103" fill="#ce7300" stroke="none">
 <path d="M257 464 c-3 -4 11 -20 33 -35 84 -61 127 -175 98 -262 -14 -44 -14 -46 6 -51 29 -8 43 8 56 66 25 104 -9 229 -74 272 -25 16 -106 22 -119 10z"/>
 <path d="M179 427 c-31 -21 -34 -27 -32 -70 2 -56 36 -120 89 -167 42 -37 115 -73 126 -62 17 17 26 98 17 144 -13 59 -42 103 -97 145 -52 39 -59 40 -103 10z"/>
 <path d="M432 405 c27 -38 32 -55 36 -122 3 -55 -1 -91 -12 -123 -8 -24 -14 -46 -12 -48 9 -8 75 28 90 49 44 63 3 202 -76 259 -57 41 -63 38 -26 -15z"/>
 <path d="M101 340 c-39 -84 -20 -181 48 -245 28 -26 40 -30 89 -30 44 0 64 5 86 22 l28 22 -38 16 c-87 36 -154 114 -178 207 l-14 53 -21 -45z"/>
 <path d="M468 106 c-20 -6 -50 -23 -65 -39 -39 -36 -54 -35 -19 2 27 28 27 29 7 36 -15 4 -30 -1 -51 -19 -17 -14 -46 -28 -65 -32 -57 -10 -29 -24 48 -23 77 1 139 23 172 59 23 26 18 29 -27 16z"/>
 </g>
<g id="layer104" fill="#fe9400" stroke="none">
 <path d="M284 463 c-19 -4 -15 -10 35 -61 42 -42 61 -70 70 -104 13 -46 11 -125 -4 -161 -6 -13 -2 -17 17 -17 18 0 27 8 36 33 23 63 25 121 8 181 -28 95 -90 145 -162 129z"/>
 <path d="M189 428 c-19 -11 -37 -25 -40 -30 -9 -13 7 -92 25 -127 37 -71 162 -159 188 -133 7 7 14 39 16 72 7 95 -43 180 -134 228 -16 9 -27 7 -55 -10z"/>
 <path d="M446 390 c32 -65 40 -139 20 -210 -8 -30 -12 -57 -10 -60 3 -2 22 4 42 15 46 25 60 73 43 150 -12 53 -62 124 -102 145 -16 9 -15 4 7 -40z"/>
 <path d="M105 340 c-23 -44 -24 -133 -2 -176 8 -16 30 -45 48 -62 29 -28 39 -32 90 -32 41 0 63 5 80 19 l24 19 -37 15 c-80 33 -163 135 -178 217 l-6 35 -19 -35z"/>
 <path d="M461 103 c-13 -3 -39 -21 -59 -40 -31 -31 -32 -34 -11 -28 39 12 73 32 93 54 11 12 15 20 10 20 -5 -1 -20 -4 -33 -6z"/>
 <path d="M331 74 c-19 -13 -46 -24 -60 -24 -20 0 -23 -2 -11 -10 26 -17 64 -11 103 15 20 14 37 30 37 35 0 17 -34 9 -69 -16z"/>
 </g>

</svg>