<!DOCTYPE svg PUBLIC "-//W3C//DTD SVG 20010904//EN" "http://www.w3.org/TR/2001/REC-SVG-20010904/DTD/svg10.dtd">
<svg version="1.0" xmlns="http://www.w3.org/2000/svg" width="272px" height="165px" viewBox="0 0 2720 1650" preserveAspectRatio="xMidYMid meet">
<g id="layer101" fill="#1a142a" stroke="none">
 <path d="M1269 1617 c-75 -25 -143 -68 -239 -149 -39 -33 -83 -60 -110 -67 -57 -17 -141 -72 -173 -114 -73 -97 -96 -218 -63 -346 19 -73 15 -88 -11 -42 -37 66 -38 67 -66 48 -14 -9 -37 -29 -50 -43 l-25 -26 5 26 c5 25 4 26 -44 26 -27 0 -54 -5 -61 -12 -9 -9 -17 -7 -36 11 -40 37 -186 70 -186 41 0 -5 -7 -10 -15 -10 -12 0 -15 -15 -15 -75 l0 -75 55 0 c30 0 55 -3 55 -7 -1 -5 -18 -21 -40 -38 -47 -37 -64 -66 -64 -109 0 -68 66 -118 170 -132 46 -6 53 -4 58 13 5 16 17 20 64 22 83 3 127 17 156 52 l26 30 31 -50 c17 -28 33 -51 36 -51 9 0 32 32 59 85 l26 49 25 -29 c191 -229 370 -373 628 -506 193 -100 361 -145 509 -137 152 9 242 73 287 204 32 94 32 235 1 312 -12 28 -20 52 -18 52 2 0 23 -35 46 -77 51 -96 53 -98 79 -82 27 17 22 3 86 277 31 131 62 264 70 298 8 33 15 63 15 66 0 3 -38 18 -85 34 -81 27 -86 28 -112 12 -24 -14 -30 -27 -42 -95 l-14 -78 -12 40 c-6 22 -19 55 -29 73 -16 31 -19 33 -39 20 -12 -8 -34 -39 -49 -69 l-27 -54 -1 75 c0 41 -3 85 -6 97 l-6 21 -59 -20 -59 -20 -37 29 c-21 16 -43 33 -50 37 -22 12 -71 -22 -83 -58 l-11 -34 -89 61 -90 61 0 43 c0 63 -27 186 -55 249 -34 76 -70 120 -119 143 -54 27 -113 26 -197 -2z m19 -696 c10 -6 12 -32 6 -120 l-7 -112 -23 22 c-13 13 -24 31 -24 41 0 12 -8 18 -22 19 -21 1 -21 2 -3 6 42 10 56 34 54 90 l-2 53 -70 -4 c-43 -2 -64 0 -56 5 18 11 130 11 147 0z m-741 -232 c1 -19 1 -20 -4 -4 -3 11 -10 24 -17 28 -7 6 -6 7 4 4 8 -2 16 -14 17 -28z m-140 -9 c0 -26 -4 -30 -28 -30 -41 0 -43 15 -6 39 17 11 32 21 33 21 0 0 1 -13 1 -30z m1282 -192 c11 -23 19 -43 18 -44 -1 -1 -12 2 -24 7 -18 6 -23 16 -23 44 0 19 2 35 4 35 2 0 13 -19 25 -42z"/>
 </g>
<g id="layer102" fill="#610b2b" stroke="none">
 <path d="M1262 1609 c-79 -23 -208 -118 -336 -247 -54 -55 -77 -85 -73 -96 4 -9 2 -16 -3 -16 -22 0 -95 -78 -116 -125 -36 -77 -26 -209 18 -247 20 -17 18 -18 -41 -18 -60 0 -62 1 -78 35 -9 19 -19 35 -22 35 -3 0 -24 -16 -46 -34 l-40 -34 24 -33 24 -32 -24 6 c-13 4 -27 7 -31 7 -5 0 -8 23 -8 50 l0 50 -44 0 c-54 0 -62 -9 -41 -52 15 -31 15 -32 0 -13 -9 11 -22 27 -28 36 -24 33 -88 67 -137 74 -68 9 -80 -2 -80 -76 l0 -59 60 0 c73 0 78 -15 19 -55 -70 -49 -89 -120 -46 -171 45 -52 197 -88 197 -46 0 15 11 18 77 21 83 3 120 16 151 56 l20 25 32 -50 c18 -27 35 -50 39 -50 4 0 26 39 50 87 l43 87 13 -29 c13 -31 300 -319 370 -371 142 -107 366 -220 560 -282 72 -23 224 -22 295 2 105 36 137 75 160 199 16 86 7 161 -27 237 -30 68 -35 67 -77 -10 -23 -42 -27 -58 -21 -88 10 -48 9 -89 0 -127 -10 -37 -34 -75 -48 -75 -6 0 -18 -7 -28 -16 -10 -9 -24 -14 -31 -11 -8 3 -4 9 12 16 35 17 60 54 74 109 13 47 6 99 -13 111 -6 4 23 64 66 140 l76 133 22 -39 c12 -21 43 -77 69 -126 26 -48 50 -87 54 -87 5 0 128 488 150 597 3 19 -5 24 -82 49 -47 15 -88 26 -91 23 -2 -3 -14 -56 -26 -118 -12 -62 -25 -109 -29 -104 -4 4 -22 45 -41 90 -19 46 -37 83 -40 83 -6 0 -60 -115 -75 -160 -7 -21 -9 -17 -15 30 -4 30 -7 83 -8 117 -1 34 -5 64 -9 67 -9 5 -82 -12 -92 -21 -3 -2 6 -13 20 -23 14 -10 23 -21 20 -23 -3 -3 -42 22 -88 55 -46 33 -87 57 -91 52 -4 -5 -16 -31 -26 -59 -10 -27 -20 -53 -24 -56 -3 -4 -43 -9 -87 -13 l-81 -6 -22 60 c-13 34 -26 60 -29 58 -4 -2 -35 -18 -69 -36 -34 -17 -69 -32 -77 -32 -7 0 -56 17 -107 39 -137 56 -140 56 -166 17 l-21 -33 76 -17 c42 -10 84 -21 93 -26 9 -5 34 -13 55 -19 45 -13 104 -46 104 -60 0 -6 -26 3 -57 18 -140 69 -278 89 -352 51 -44 -22 -61 -50 -31 -50 16 0 20 -7 20 -35 0 -19 -4 -35 -10 -35 -5 0 -10 9 -10 20 0 38 -86 19 -155 -33 -28 -21 -34 -24 -20 -8 20 23 20 24 -25 50 -10 6 -16 28 -18 63 -4 77 28 135 91 167 42 21 51 22 72 11 28 -15 33 -30 9 -30 -29 0 -96 -44 -110 -72 -8 -15 -17 -48 -20 -72 -6 -39 -4 -46 18 -60 24 -15 28 -15 56 1 17 10 33 27 36 39 3 12 22 36 41 53 27 24 45 31 75 31 38 0 41 2 57 43 27 69 110 231 133 260 23 29 46 37 36 12 -4 -11 1 -15 17 -15 12 0 76 -18 142 -40 66 -21 121 -37 124 -35 9 9 -23 129 -49 183 -62 129 -163 184 -278 151z m734 -666 c-14 -26 -25 -45 -26 -42 0 13 42 101 47 96 2 -3 -7 -27 -21 -54z m-702 -19 c15 -6 14 -72 0 -192 -5 -41 -6 -42 -27 -27 -27 19 -38 19 -31 2 3 -8 -2 -20 -11 -27 -13 -11 -15 -7 -15 34 0 46 0 46 -35 46 -19 0 -35 4 -35 9 0 4 17 8 39 8 21 0 44 3 50 7 6 4 11 32 11 63 l0 56 -85 -5 c-47 -3 -88 -2 -91 3 -3 5 10 9 28 9 19 0 38 4 44 9 5 5 18 11 29 14 21 6 106 0 129 -9z m451 -101 c-3 -10 -9 -30 -12 -45 -8 -39 -20 -35 -32 10 -15 52 -15 52 20 52 26 0 30 -3 24 -17z m195 -28 c0 -9 -7 -29 -15 -45 -15 -28 -14 -31 19 -77 19 -27 37 -66 41 -88 l7 -40 -27 40 c-68 98 -70 99 -85 60 -8 -21 -2 -40 35 -111 48 -93 55 -137 31 -204 -14 -39 -64 -73 -83 -57 -9 6 -18 5 -28 -3 -20 -17 -116 -15 -165 3 -8 3 -22 7 -31 10 -14 5 -17 30 -21 179 -3 95 -4 175 -2 177 4 4 94 -176 94 -189 0 -6 -10 -8 -25 -4 -18 4 -25 2 -25 -7 0 -28 17 -40 50 -37 33 3 34 5 124 206 84 187 106 226 106 187z m-902 -34 c4 -39 -10 -35 -34 10 -15 30 -15 30 8 27 18 -2 24 -10 26 -37z m-33 -47 c42 -8 42 -30 -1 -26 -42 5 -74 29 -74 56 0 36 12 39 26 7 10 -23 21 -31 49 -37z m-277 31 c-10 -23 -12 -23 -24 -7 -19 25 -17 32 11 32 23 0 24 -2 13 -25z m-184 -31 c19 -19 20 -25 3 -49 -19 -25 -37 -10 -37 31 0 37 10 43 34 18z m-134 -39 l0 -45 -45 0 c-58 0 -59 19 -2 59 23 17 43 30 45 31 1 0 2 -20 2 -45z m750 -14 c0 -12 39 -21 46 -10 8 14 19 11 48 -16 27 -25 34 -45 15 -45 -6 0 -9 -6 -6 -14 3 -8 -1 -17 -8 -20 -10 -4 -18 7 -25 34 -10 38 -13 40 -50 40 -33 0 -40 3 -40 20 0 11 5 20 10 20 6 0 10 -4 10 -9z m-27 -152 c23 -22 63 -57 90 -77 60 -46 64 -76 4 -32 -77 55 -174 149 -154 150 10 0 37 -18 60 -41z m118 10 c29 -20 38 -39 19 -39 -5 0 -24 13 -42 30 -38 34 -21 40 23 9z m126 -201 c15 -7 64 -34 107 -60 44 -27 84 -48 89 -48 6 0 8 -2 5 -5 -3 -3 -43 12 -89 34 -102 47 -205 120 -112 79z m521 -175 c-26 -2 -71 -2 -100 0 -29 2 -8 3 47 3 55 0 79 -1 53 -3z"/>
 <path d="M1831 540 c-10 -22 -17 -49 -14 -61 4 -15 -4 -28 -28 -49 -19 -16 -29 -29 -23 -30 5 0 16 6 23 13 11 10 13 9 7 -1 -11 -18 -76 -43 -106 -40 -22 3 -25 0 -24 -27 1 -16 2 -33 3 -37 2 -16 88 -30 148 -23 85 9 107 34 101 120 -4 58 -44 175 -60 175 -4 0 -16 -18 -27 -40z"/>
 <path d="M1232 1237 c-5 -6 -17 -26 -25 -43 l-16 -31 79 -27 c43 -14 98 -38 122 -51 54 -31 58 -31 113 3 l44 27 -92 44 c-51 24 -108 52 -127 61 -53 26 -86 32 -98 17z"/>
 </g>
<g id="layer103" fill="#b63116" stroke="none">
 <path d="M1262 1609 c-38 -11 -121 -59 -177 -102 -58 -45 -235 -219 -235 -231 0 -6 12 -20 27 -32 l27 -21 -31 -16 c-44 -23 -107 -99 -121 -145 -16 -54 -15 -115 3 -159 8 -19 15 -37 15 -39 0 -2 -27 -4 -60 -4 -59 0 -61 1 -77 35 -9 19 -19 35 -22 35 -3 0 -24 -16 -46 -34 l-40 -34 24 -33 24 -32 -24 6 c-13 4 -27 7 -31 7 -5 0 -8 23 -8 50 l0 50 -44 0 c-54 0 -62 -9 -41 -52 15 -31 15 -32 0 -13 -9 11 -22 27 -28 36 -24 33 -88 67 -137 74 -68 9 -80 -2 -80 -76 l0 -59 60 0 c73 0 78 -15 19 -55 -107 -75 -88 -183 39 -219 78 -22 112 -21 112 2 0 15 11 18 77 21 83 3 120 16 151 56 l20 25 32 -50 c18 -27 35 -50 39 -50 4 0 26 39 50 87 42 85 43 87 55 61 6 -14 88 -99 181 -189 225 -215 356 -303 595 -399 278 -113 499 -84 565 73 24 57 21 166 -6 243 -12 35 -26 64 -30 64 -4 0 -17 -15 -28 -34 -19 -30 -20 -39 -10 -86 19 -88 -7 -163 -69 -202 -19 -12 -42 -18 -55 -15 -12 3 -31 -1 -41 -9 -23 -17 -128 -18 -196 -3 -25 6 -58 13 -74 16 -39 8 -300 139 -317 159 -24 29 46 6 165 -53 132 -66 231 -93 343 -93 145 0 195 41 192 156 -2 60 0 66 76 199 l77 137 23 -39 c12 -21 43 -77 69 -126 26 -48 50 -87 54 -87 5 0 128 488 150 597 3 19 -5 24 -82 49 -47 15 -88 26 -91 23 -2 -3 -14 -56 -26 -118 -12 -62 -25 -109 -29 -104 -4 4 -22 45 -41 90 -19 46 -37 83 -40 83 -6 0 -60 -115 -75 -160 -7 -21 -9 -17 -15 30 -4 30 -7 83 -8 117 -1 34 -5 64 -9 67 -9 5 -82 -12 -92 -21 -3 -2 6 -13 20 -23 14 -10 23 -21 20 -23 -3 -3 -42 22 -88 55 -46 33 -87 57 -91 52 -4 -5 -16 -31 -26 -59 -10 -27 -20 -53 -24 -56 -3 -4 -43 -9 -87 -13 l-81 -6 -22 60 c-12 33 -23 60 -25 60 -1 0 -39 -20 -83 -43 -57 -31 -85 -41 -97 -35 -24 14 -206 78 -219 78 -7 0 -20 -11 -29 -24 l-17 -23 77 -15 c102 -20 229 -73 249 -104 9 -14 14 -27 11 -29 -3 -3 -43 13 -89 34 -105 50 -166 65 -230 59 -60 -6 -103 -35 -107 -71 -3 -22 1 -27 20 -27 13 0 44 7 70 17 37 13 58 15 105 7 l58 -9 -3 -70 c-1 -38 -5 -94 -8 -123 -5 -50 -7 -53 -23 -38 -10 9 -21 16 -25 16 -5 0 1 -8 13 -17 30 -24 34 -73 11 -119 -18 -33 -18 -40 -5 -54 17 -19 20 -40 5 -40 -5 0 -24 13 -42 30 -31 28 -32 29 -10 30 25 0 26 2 11 52 -9 36 -12 38 -49 38 -33 0 -40 3 -40 20 0 11 5 20 10 20 6 0 10 -4 10 -10 0 -5 9 -10 21 -10 11 0 17 5 14 10 -3 6 -1 10 4 10 6 0 11 20 11 45 0 45 0 45 -35 45 -53 0 -42 18 13 22 l47 3 3 59 3 59 -105 -7 c-102 -6 -106 -6 -106 14 0 15 -6 20 -27 20 -34 0 -109 -34 -143 -63 l-25 -22 19 23 c11 12 17 24 15 25 -2 2 -15 11 -28 20 -51 34 -32 173 29 217 56 40 86 44 121 19 l32 -22 -39 -20 c-70 -35 -94 -75 -94 -152 l0 -45 34 17 c19 9 37 26 40 38 8 30 71 85 99 86 12 1 30 2 40 3 12 1 31 31 61 98 66 146 116 228 139 228 5 0 7 -7 3 -15 -4 -11 1 -15 17 -15 12 0 76 -18 142 -40 66 -21 121 -37 124 -35 9 9 -23 129 -49 183 -62 129 -163 184 -278 151z m734 -666 c-14 -26 -25 -45 -26 -42 0 13 42 101 47 96 2 -3 -7 -27 -21 -54z m-251 -120 c-3 -10 -9 -30 -12 -45 -8 -39 -20 -35 -32 10 -15 52 -15 52 20 52 26 0 30 -3 24 -17z m195 -35 c-1 -13 -7 -34 -15 -48 -12 -23 -11 -28 19 -65 21 -26 37 -61 45 -100 8 -33 16 -67 18 -75 3 -8 -18 22 -46 67 -28 45 -56 85 -61 88 -5 3 -14 -4 -20 -15 -9 -17 -6 -29 18 -68 42 -69 62 -127 62 -178 0 -79 -48 -137 -103 -127 -16 3 -27 1 -27 -6 0 -14 -65 -14 -132 1 -29 6 -58 11 -64 10 -8 -2 -13 53 -16 180 -3 101 -3 185 -2 187 2 2 30 -51 63 -119 l60 -123 34 74 c18 41 60 134 92 207 58 129 75 155 75 110z m-902 -27 c4 -39 -10 -35 -34 10 -15 30 -15 30 8 27 18 -2 24 -10 26 -37z m-28 -48 c39 -7 33 -29 -6 -25 -42 5 -74 29 -74 56 0 36 12 38 32 6 11 -19 29 -33 48 -37z m-282 32 c-10 -23 -12 -23 -24 -7 -19 25 -17 32 11 32 23 0 24 -2 13 -25z m-184 -31 c19 -19 20 -25 3 -49 -19 -25 -37 -10 -37 31 0 37 10 43 34 18z m-134 -39 l0 -45 -45 0 c-58 0 -59 19 -2 59 23 17 43 30 45 31 1 0 2 -20 2 -45z m775 -197 c48 -42 85 -81 85 -91 0 -16 -6 -14 -43 13 -24 17 -72 57 -108 90 -53 49 -60 59 -42 60 14 0 55 -28 108 -72z"/>
 <path d="M1830 534 c-6 -14 -10 -38 -10 -54 0 -71 -31 -100 -109 -105 -43 -3 -46 -5 -46 -32 1 -26 4 -28 50 -31 136 -9 200 69 161 194 -19 60 -31 67 -46 28z"/>
 <path d="M1217 1206 c-10 -14 -17 -29 -17 -34 0 -6 24 -17 53 -27 28 -9 85 -32 125 -51 62 -28 77 -31 97 -22 14 6 25 14 25 17 -1 3 -53 31 -118 60 -64 30 -120 60 -124 65 -5 7 -8 7 -8 1 0 -5 -4 -4 -9 3 -6 10 -12 7 -24 -12z"/>
 </g>
<g id="layer104" fill="#0076a7" stroke="none">
 <path d="M1262 1609 c-38 -11 -121 -59 -177 -102 -58 -45 -235 -219 -235 -231 0 -6 16 -24 36 -40 l36 -28 -33 -17 c-54 -26 -104 -82 -119 -134 -11 -42 -11 -125 1 -177 3 -12 -9 -16 -58 -18 l-63 -3 -17 36 c-9 19 -19 35 -22 35 -3 0 -24 -16 -46 -34 l-40 -34 24 -33 24 -32 -24 6 c-13 4 -27 7 -31 7 -5 0 -8 23 -8 50 l0 50 -44 0 c-54 0 -62 -9 -41 -52 15 -31 15 -32 0 -13 -9 11 -22 27 -28 36 -24 33 -88 67 -137 74 -68 9 -80 -2 -80 -76 l0 -59 60 0 c73 0 78 -15 19 -55 -107 -75 -88 -183 39 -219 78 -22 112 -21 112 2 0 15 11 18 77 21 83 3 120 16 151 56 l20 25 32 -50 c18 -27 35 -50 39 -50 4 0 26 39 50 87 l43 87 13 -30 c11 -26 79 -94 95 -94 3 0 59 -53 125 -117 127 -125 246 -213 385 -286 92 -48 221 -103 260 -111 14 -3 36 -8 50 -11 39 -10 231 -16 243 -8 7 4 15 8 20 9 4 1 9 3 12 4 3 1 8 3 13 4 4 1 26 14 48 28 64 41 88 99 82 201 -3 55 -11 95 -24 120 l-20 39 -17 -26 c-15 -22 -15 -33 -6 -73 25 -112 -36 -223 -123 -223 -15 0 -30 -5 -34 -11 -12 -19 -208 -4 -283 21 -104 35 -331 154 -318 166 9 9 121 -25 184 -55 120 -59 180 -74 298 -78 124 -4 146 3 182 56 17 25 23 48 23 87 0 30 4 54 9 54 5 0 44 61 86 136 l77 136 23 -39 c12 -21 43 -77 69 -126 26 -48 50 -87 54 -87 5 0 128 488 150 597 3 19 -5 24 -82 49 -47 15 -88 26 -91 23 -2 -3 -14 -56 -26 -118 -12 -62 -25 -109 -29 -104 -4 4 -22 45 -41 90 -19 46 -37 83 -40 83 -6 0 -60 -115 -75 -160 -7 -21 -9 -17 -15 30 -4 30 -7 83 -8 117 -1 34 -5 64 -9 67 -9 5 -82 -12 -92 -21 -3 -2 6 -13 20 -23 14 -10 23 -21 20 -23 -3 -3 -42 22 -88 55 -46 33 -87 57 -91 52 -4 -5 -16 -31 -26 -59 -10 -27 -20 -53 -24 -56 -3 -4 -43 -9 -87 -13 l-81 -6 -22 60 c-13 34 -26 60 -29 58 -69 -32 -152 -81 -152 -88 0 -6 -11 -5 -27 3 -28 14 -167 61 -211 70 -15 4 -25 -1 -32 -13 -9 -17 -5 -20 27 -25 66 -11 146 -36 210 -65 50 -23 66 -36 82 -69 l21 -40 -32 18 c-18 11 -75 36 -127 56 -83 33 -102 37 -162 33 -55 -3 -73 -8 -94 -28 -47 -44 -21 -59 59 -31 40 14 140 11 155 -5 16 -16 -9 -304 -29 -347 -15 -32 -16 -39 -4 -44 16 -6 19 -53 4 -53 -5 0 -24 13 -42 30 -31 28 -32 29 -10 30 25 0 26 2 11 52 -9 36 -12 38 -49 38 -33 0 -40 3 -40 20 0 11 5 20 10 20 6 0 10 -4 10 -10 0 -5 9 -10 21 -10 11 0 17 5 14 10 -3 6 -1 10 4 10 6 0 11 20 11 45 0 45 0 45 -35 45 -53 0 -42 18 13 22 l47 3 3 59 3 59 -105 -7 c-102 -6 -106 -6 -106 14 0 15 -6 20 -27 20 -34 0 -109 -34 -143 -63 l-25 -22 19 23 c11 12 17 24 15 25 -2 2 -15 11 -28 20 -55 37 -32 177 38 222 59 39 81 40 124 5 44 -37 46 -46 12 -54 -38 -10 -93 -71 -101 -111 -3 -20 -4 -38 -1 -41 12 -12 45 8 51 30 7 30 70 86 99 87 12 1 30 2 40 3 12 1 31 31 61 98 66 146 116 228 139 228 5 0 7 -7 3 -15 -4 -11 1 -15 17 -15 12 0 76 -18 142 -40 66 -21 121 -37 124 -35 9 9 -23 129 -49 183 -62 129 -163 184 -278 151z m734 -666 c-14 -26 -25 -45 -26 -42 0 13 42 101 47 96 2 -3 -7 -27 -21 -54z m-251 -120 c-3 -10 -9 -30 -12 -45 -8 -39 -20 -35 -32 10 -15 52 -15 52 20 52 26 0 30 -3 24 -17z m195 -25 c0 -7 3 -24 7 -37 4 -16 3 -22 -5 -17 -6 3 -15 -1 -21 -11 -7 -13 -2 -26 22 -57 24 -30 38 -67 59 -154 16 -63 27 -117 25 -119 -2 -2 -14 24 -26 57 -23 63 -97 190 -111 190 -21 0 -18 -37 8 -79 80 -132 83 -245 7 -295 -14 -9 -34 -14 -45 -11 -10 3 -21 1 -25 -5 -8 -13 -72 -13 -137 2 -29 6 -58 11 -64 10 -8 -2 -13 53 -16 180 -3 101 -3 185 -2 187 2 2 30 -51 63 -119 l60 -123 34 74 c18 41 60 134 92 207 54 120 75 153 75 120z m-902 -37 c4 -39 -10 -35 -34 10 -15 30 -15 30 8 27 18 -2 24 -10 26 -37z m-71 -11 c8 -22 20 -32 43 -36 38 -8 34 -30 -6 -26 -42 5 -74 29 -74 56 0 44 21 48 37 6z m-239 -5 c-10 -23 -12 -23 -24 -7 -19 25 -17 32 11 32 23 0 24 -2 13 -25z m-184 -31 c19 -19 20 -25 3 -49 -19 -25 -37 -10 -37 31 0 37 10 43 34 18z m-134 -39 l0 -45 -45 0 c-58 0 -59 19 -2 59 23 17 43 30 45 31 1 0 2 -20 2 -45z m780 -192 c59 -49 80 -72 80 -90 l0 -24 -43 31 c-24 17 -72 57 -108 90 -61 56 -63 59 -36 60 20 0 50 -18 107 -67z"/>
 <path d="M1834 539 c-5 -8 -11 -38 -14 -68 -6 -67 -34 -92 -106 -96 -28 -2 -49 -8 -48 -14 1 -6 2 -18 3 -26 1 -20 80 -20 124 -1 58 27 70 42 74 98 5 59 -17 131 -33 107z"/>
 <path d="M1206 1183 c-14 -14 -4 -23 36 -33 22 -7 79 -29 126 -51 50 -23 89 -36 95 -30 8 8 -49 51 -67 51 -4 0 -31 11 -59 24 -86 40 -120 50 -131 39z"/>
 </g>
<g id="layer105" fill="#04938d" stroke="none">
 <path d="M1262 1609 c-38 -11 -121 -59 -177 -102 -58 -45 -235 -219 -235 -231 0 -6 16 -24 36 -40 l36 -28 -33 -17 c-54 -26 -104 -82 -119 -134 -11 -42 -11 -125 1 -177 3 -12 -9 -16 -58 -18 l-63 -3 -17 36 c-9 19 -19 35 -22 35 -3 0 -24 -16 -46 -34 l-40 -34 24 -33 24 -32 -24 6 c-13 4 -27 7 -31 7 -5 0 -8 23 -8 50 l0 50 -44 0 c-54 0 -62 -9 -41 -52 15 -31 15 -32 0 -13 -9 11 -22 27 -28 36 -24 33 -88 67 -137 74 -68 9 -80 -2 -80 -76 l0 -59 60 0 c73 0 78 -15 19 -55 -107 -75 -88 -183 39 -219 78 -22 112 -21 112 2 0 15 11 18 77 21 83 3 120 16 151 56 l20 25 32 -50 c18 -27 35 -50 39 -50 4 0 26 39 50 87 l43 87 13 -30 c11 -26 79 -94 95 -94 3 0 59 -53 125 -117 127 -125 246 -213 385 -286 92 -48 221 -103 260 -111 14 -3 36 -8 50 -11 39 -10 231 -16 243 -8 7 4 15 8 20 9 4 1 9 3 12 4 3 1 8 3 13 4 4 1 26 14 48 28 64 41 88 99 82 201 -3 55 -11 95 -24 120 l-20 39 -17 -26 c-15 -22 -15 -33 -6 -73 25 -112 -36 -223 -123 -223 -15 0 -30 -5 -34 -11 -12 -19 -208 -4 -283 21 -104 35 -331 154 -318 166 9 9 121 -25 184 -55 120 -59 180 -74 298 -78 124 -4 146 3 182 56 17 25 23 48 23 87 0 30 4 54 9 54 5 0 44 61 86 136 l77 136 23 -39 c12 -21 43 -77 69 -126 26 -48 50 -87 54 -87 5 0 128 488 150 597 3 19 -5 24 -82 49 -47 15 -88 26 -91 23 -2 -3 -14 -56 -26 -118 -12 -62 -25 -109 -29 -104 -4 4 -22 45 -41 90 -19 46 -37 83 -40 83 -6 0 -60 -115 -75 -160 -7 -21 -9 -17 -15 30 -4 30 -7 83 -8 117 -1 34 -5 64 -9 67 -13 8 -92 -15 -92 -26 0 -6 14 -8 35 -4 l34 7 -2 -123 c-3 -170 2 -186 67 -238 l54 -44 -36 -66 c-20 -37 -42 -67 -50 -67 -7 0 -30 20 -51 43 -32 37 -42 61 -68 161 -31 117 -31 118 -13 158 40 88 54 120 57 126 6 10 -159 121 -166 113 -4 -5 -16 -31 -26 -59 -10 -27 -20 -53 -24 -56 -3 -4 -43 -9 -87 -13 l-81 -6 -22 60 c-13 34 -26 60 -29 58 -69 -32 -152 -81 -152 -88 0 -6 -11 -5 -27 3 -28 14 -167 61 -211 70 -15 4 -25 -1 -32 -13 -9 -17 -5 -20 27 -25 66 -11 146 -36 210 -65 50 -23 66 -36 82 -69 l21 -40 -32 18 c-18 11 -75 36 -127 56 -83 33 -102 37 -162 33 -55 -3 -73 -8 -94 -28 -47 -44 -21 -59 59 -31 40 14 140 11 155 -5 16 -16 -9 -304 -29 -347 -15 -32 -16 -39 -4 -44 16 -6 19 -53 4 -53 -5 0 -24 13 -42 30 -31 28 -32 29 -10 30 25 0 26 2 11 52 -9 36 -12 38 -49 38 -33 0 -40 3 -40 20 0 11 5 20 10 20 6 0 10 -4 10 -10 0 -5 9 -10 21 -10 11 0 17 5 14 10 -3 6 -1 10 4 10 6 0 11 20 11 45 0 45 0 45 -35 45 -53 0 -42 18 13 22 l47 3 3 59 3 59 -105 -7 c-102 -6 -106 -6 -106 14 0 28 -41 26 -105 -4 -67 -31 -95 -64 -102 -118 -3 -23 -26 -83 -51 -132 l-45 -88 -24 38 c-12 22 -23 42 -23 47 0 4 15 15 34 23 46 23 76 78 76 144 0 28 5 60 11 71 10 19 12 19 34 5 27 -18 35 -20 35 -8 0 4 -12 15 -27 24 -59 34 -34 181 38 226 59 36 80 36 122 2 44 -37 46 -46 12 -54 -38 -10 -93 -71 -101 -111 -3 -20 -4 -38 -1 -41 12 -12 45 8 51 30 7 30 70 86 99 87 12 1 30 2 40 3 12 1 31 31 61 98 66 146 116 228 139 228 5 0 7 -7 3 -15 -4 -11 1 -15 17 -15 12 0 62 -13 112 -29 49 -16 92 -27 95 -25 14 14 -119 91 -213 124 -61 22 -73 23 -122 13 -30 -7 -97 -33 -150 -59 -53 -26 -99 -43 -103 -39 -10 10 131 143 204 192 105 71 185 88 259 54 74 -33 131 -126 155 -249 7 -34 17 -62 21 -62 13 0 11 24 -7 93 -49 191 -170 287 -312 246z m665 -551 c35 -24 63 -46 63 -49 0 -4 -9 -26 -19 -50 l-20 -43 -6 29 c-10 49 -29 79 -62 100 -29 18 -46 55 -26 55 5 0 36 -19 70 -42z m-334 -10 c6 -21 4 -31 -12 -47 -11 -11 -30 -39 -42 -63 l-22 -42 -28 54 c-15 30 -28 60 -29 65 0 12 100 65 114 61 6 -1 14 -14 19 -28z m-1343 -111 c0 -2 -11 -14 -25 -27 l-25 -23 0 26 c0 22 5 27 25 27 14 0 25 -1 25 -3z m1495 -114 c-3 -10 -9 -30 -12 -45 -8 -39 -20 -35 -32 10 -15 52 -15 52 20 52 26 0 30 -3 24 -17z m195 -25 c0 -7 3 -24 7 -37 4 -16 3 -22 -5 -17 -6 3 -15 -1 -21 -11 -7 -13 -2 -26 22 -57 24 -30 38 -67 59 -154 16 -63 27 -117 25 -119 -2 -2 -14 24 -26 57 -23 63 -97 190 -111 190 -21 0 -18 -37 8 -79 80 -132 83 -245 7 -295 -14 -9 -34 -14 -45 -11 -10 3 -21 1 -25 -5 -8 -13 -72 -13 -137 2 -29 6 -58 11 -64 10 -8 -2 -13 53 -16 180 -3 101 -3 185 -2 187 2 2 30 -51 63 -119 l60 -123 34 74 c18 41 60 134 92 207 54 120 75 153 75 120z m-902 -37 c4 -39 -10 -35 -34 10 -15 30 -15 30 8 27 18 -2 24 -10 26 -37z m-71 -11 c8 -22 20 -32 43 -36 38 -8 34 -30 -6 -26 -42 5 -74 29 -74 56 0 44 21 48 37 6z m-239 -5 c-10 -23 -12 -23 -24 -7 -19 25 -17 32 11 32 23 0 24 -2 13 -25z m-184 -31 c19 -19 20 -25 3 -49 -19 -25 -37 -10 -37 31 0 37 10 43 34 18z m-134 -39 l0 -45 -45 0 c-58 0 -59 19 -2 59 23 17 43 30 45 31 1 0 2 -20 2 -45z m-125 -35 c7 0 18 -7 25 -15 7 -8 28 -15 46 -15 32 0 34 -2 34 -35 0 -33 -1 -34 -32 -29 -89 15 -144 48 -148 89 -6 54 -2 58 31 31 17 -14 36 -26 44 -26z m723 4 c28 -11 42 -22 42 -34 0 -16 -6 -18 -37 -13 -47 6 -115 37 -137 62 -16 17 -14 18 36 10 29 -5 72 -16 96 -25z m-524 -9 c20 -9 46 -13 59 -10 12 2 37 7 56 9 l34 5 -26 -26 c-22 -22 -37 -27 -101 -31 l-76 -5 0 37 c0 41 3 42 54 21z m1098 -7 c8 -13 16 -48 17 -79 l2 -57 -68 -22 c-37 -12 -73 -26 -78 -30 -21 -18 -134 -70 -151 -70 -15 0 -16 10 -10 98 6 81 10 100 28 115 11 9 28 17 39 17 10 0 21 4 24 10 8 14 89 36 140 39 34 1 45 -2 57 -21z m-414 -16 c23 -2 42 -8 42 -12 0 -5 3 -15 6 -24 5 -13 -1 -16 -34 -16 -21 0 -60 3 -85 6 -43 6 -45 8 -34 28 16 29 29 37 47 29 8 -3 34 -8 58 -11z m620 -60 c-1 -4 -11 -28 -22 -55 -10 -26 -22 -47 -25 -47 -8 0 -51 85 -51 100 0 6 23 10 51 10 28 0 49 -3 47 -8z m578 -8 c-3 -9 -9 -33 -12 -55 -4 -21 -10 -39 -13 -39 -11 0 -48 84 -44 98 3 6 21 12 40 12 28 0 34 -3 29 -16z m-1176 -61 c59 -49 80 -72 80 -90 l0 -24 -43 31 c-24 17 -72 57 -108 90 -61 56 -63 59 -36 60 20 0 50 -18 107 -67z"/>
 <path d="M1834 539 c-5 -8 -11 -38 -14 -68 -6 -67 -34 -92 -106 -96 -28 -2 -49 -8 -48 -14 1 -6 2 -18 3 -26 1 -20 80 -20 124 -1 58 27 70 42 74 98 5 59 -17 131 -33 107z"/>
 <path d="M1206 1183 c-14 -14 -4 -23 36 -33 22 -7 79 -29 126 -51 50 -23 89 -36 95 -30 8 8 -49 51 -67 51 -4 0 -31 11 -59 24 -86 40 -120 50 -131 39z"/>
 </g>
<g id="layer106" fill="#41b372" stroke="none">
 <path d="M1262 1609 c-38 -11 -121 -59 -177 -102 -58 -45 -235 -219 -235 -231 0 -6 16 -24 36 -40 l36 -28 -33 -17 c-54 -26 -104 -82 -119 -134 -11 -42 -11 -125 1 -177 3 -12 -9 -16 -58 -18 l-63 -3 -17 36 c-9 19 -19 35 -22 35 -3 0 -24 -16 -46 -34 l-40 -34 24 -33 24 -32 -24 6 c-13 4 -27 7 -31 7 -5 0 -8 23 -8 51 l0 50 -47 -3 c-25 -2 -48 -8 -50 -14 -2 -7 8 -9 27 -6 l30 4 0 -70 c0 -42 6 -81 15 -98 8 -16 15 -44 15 -61 0 -25 4 -33 18 -33 23 0 52 30 52 53 0 10 8 17 19 17 11 0 26 3 35 6 29 11 20 -51 -12 -87 -26 -29 -34 -32 -107 -37 l-78 -5 6 120 c6 118 5 122 -20 160 -34 52 -92 90 -154 98 -67 9 -79 -2 -79 -76 l0 -59 60 0 c73 0 78 -15 19 -55 -107 -75 -88 -183 39 -219 78 -22 112 -21 112 2 0 15 11 18 77 21 83 3 120 16 151 56 l20 25 32 -50 c18 -27 35 -50 39 -50 4 0 26 39 50 87 l43 87 13 -30 c11 -26 79 -94 95 -94 3 0 59 -53 125 -117 127 -125 246 -213 385 -286 92 -48 221 -103 260 -111 14 -3 36 -8 50 -11 39 -10 231 -16 243 -8 7 4 15 8 20 9 4 1 9 3 12 4 3 1 8 3 13 4 4 1 26 14 48 28 64 41 88 99 82 201 -3 55 -11 95 -24 120 l-20 39 -17 -26 c-15 -22 -15 -33 -6 -73 25 -112 -36 -223 -123 -223 -15 0 -30 -5 -34 -11 -12 -19 -208 -4 -283 21 -104 35 -331 154 -318 166 9 9 121 -25 184 -55 120 -59 180 -74 298 -78 124 -4 146 3 182 56 17 25 23 48 23 87 0 30 4 54 9 54 5 0 44 61 86 136 l77 136 23 -39 c12 -21 43 -77 69 -126 26 -48 50 -87 54 -87 5 0 128 488 150 597 3 19 -5 24 -82 49 -47 15 -88 26 -91 23 -2 -3 -14 -56 -26 -118 -12 -62 -25 -109 -29 -104 -4 4 -22 45 -41 90 -19 46 -37 83 -40 83 -6 0 -60 -115 -75 -160 -7 -21 -9 -17 -15 30 -4 30 -7 83 -8 117 -1 34 -5 64 -9 67 -12 7 -92 -15 -92 -26 0 -6 16 -7 39 -3 l38 6 7 -103 c4 -57 10 -118 13 -137 5 -30 7 -32 18 -17 12 15 14 14 23 -12 5 -16 24 -45 40 -64 l31 -34 -60 -110 c-102 -184 -84 -190 -144 51 l-52 210 17 40 c26 59 53 119 57 126 6 10 -159 121 -166 113 -4 -5 -16 -31 -26 -59 -10 -27 -20 -53 -24 -56 -3 -4 -43 -9 -87 -13 l-81 -6 -22 60 c-13 34 -26 60 -29 58 -69 -32 -152 -81 -152 -88 0 -6 -11 -5 -27 3 -28 14 -167 61 -211 70 -15 4 -25 -1 -32 -13 -9 -17 -5 -20 27 -25 66 -11 146 -36 210 -65 50 -23 66 -36 82 -69 l21 -40 -32 18 c-18 11 -75 36 -127 56 -83 33 -102 37 -162 33 -55 -3 -73 -8 -94 -28 -47 -44 -21 -59 59 -31 40 14 140 11 155 -5 16 -16 -9 -304 -29 -347 -15 -32 -16 -39 -4 -44 16 -6 19 -53 4 -53 -5 0 -24 13 -42 30 -31 28 -32 29 -10 30 25 0 26 2 11 52 -9 36 -12 38 -49 38 -33 0 -40 3 -40 20 0 11 5 20 10 20 6 0 10 -4 10 -10 0 -5 9 -10 21 -10 11 0 17 5 14 10 -3 6 -1 10 4 10 6 0 11 20 11 45 0 45 0 45 -35 45 -53 0 -42 18 13 22 l47 3 3 59 3 59 -105 -7 c-102 -6 -106 -6 -106 14 0 28 -41 26 -105 -4 -67 -31 -95 -64 -102 -118 -3 -23 -26 -83 -51 -131 l-45 -89 -33 54 c-19 29 -34 58 -34 65 0 6 -3 18 -6 26 -8 22 32 16 49 -7 14 -19 16 -18 36 22 25 49 26 62 6 62 -8 0 -15 4 -15 9 0 5 -3 16 -6 25 -5 13 1 16 25 16 26 0 33 6 46 36 15 36 15 36 40 20 27 -18 35 -20 35 -8 0 4 -12 15 -27 24 -59 34 -34 181 38 226 59 36 80 36 122 2 44 -37 46 -46 12 -54 -38 -10 -93 -71 -101 -111 -3 -20 -4 -38 -1 -41 12 -12 45 8 51 30 7 30 70 86 99 87 12 1 30 2 40 3 12 1 31 31 61 98 66 146 116 228 139 228 5 0 7 -7 3 -15 -4 -10 1 -15 14 -15 24 0 25 9 6 35 -12 16 -18 17 -39 8 -14 -7 -33 -25 -43 -42 -11 -19 -29 -33 -48 -37 -57 -12 -131 -54 -167 -96 l-36 -42 -56 48 c-45 38 -55 52 -48 65 17 30 195 196 256 238 106 71 186 88 260 54 74 -33 131 -126 155 -249 7 -34 17 -62 21 -62 13 0 11 24 -7 93 -49 191 -170 287 -312 246z m665 -551 c35 -24 63 -47 62 -53 0 -5 -15 -41 -34 -80 -31 -65 -33 -68 -34 -37 -1 48 -29 100 -61 117 -26 14 -27 16 -17 55 6 22 14 40 17 40 2 0 33 -19 67 -42z m-327 -34 l17 -49 -30 -55 c-17 -30 -34 -59 -38 -64 -7 -8 -89 142 -89 162 0 10 101 62 114 58 5 -1 17 -24 26 -52z m841 4 c41 -12 44 -15 30 -37 -6 -10 -10 -10 -16 -1 -4 6 -21 20 -39 31 -36 22 -29 24 25 7z m-2140 -98 c19 -5 48 -24 65 -42 l29 -32 -29 22 c-45 34 -81 27 -138 -26 l-28 -26 0 57 0 57 33 0 c17 0 48 -5 68 -10z m608 -134 c5 -4 7 -21 4 -39 -4 -29 0 -37 27 -60 22 -19 43 -27 71 -27 39 0 39 0 39 -39 l0 -40 -37 6 c-57 8 -125 45 -150 83 -28 40 -30 107 -6 153 l16 32 13 -32 c8 -17 18 -34 23 -37z m836 27 c-3 -10 -9 -30 -12 -45 -8 -39 -20 -35 -32 10 -15 52 -15 52 20 52 26 0 30 -3 24 -17z m-186 -70 c32 -65 39 -124 42 -333 1 -100 -2 -125 -12 -123 -31 4 -294 65 -298 69 -2 2 1 73 7 156 7 84 12 160 12 168 0 12 9 15 40 12 47 -5 117 32 152 78 12 17 23 30 25 30 1 0 16 -26 32 -57z m381 45 c0 -7 3 -24 7 -37 4 -16 3 -22 -5 -17 -6 3 -15 -1 -21 -11 -7 -13 -2 -26 22 -57 24 -30 38 -67 59 -154 16 -63 27 -117 25 -119 -2 -2 -14 24 -26 57 -23 63 -97 190 -111 190 -21 0 -18 -37 8 -79 80 -132 83 -245 7 -295 -14 -9 -34 -14 -45 -11 -10 3 -21 1 -25 -5 -8 -13 -72 -13 -137 2 -29 6 -58 11 -64 10 -8 -2 -13 53 -16 180 -3 101 -3 185 -2 187 2 2 30 -51 63 -119 l60 -123 34 74 c18 41 60 134 92 207 54 120 75 153 75 120z m-902 -37 c4 -39 -10 -35 -34 10 -15 30 -15 30 8 27 18 -2 24 -10 26 -37z m-71 -11 c8 -22 20 -32 43 -36 38 -8 34 -30 -6 -26 -42 5 -74 29 -74 56 0 44 21 48 37 6z m-239 -5 c-10 -23 -12 -23 -24 -7 -19 25 -17 32 11 32 23 0 24 -2 13 -25z m961 -85 c16 -6 55 -10 85 -8 31 1 56 1 56 -2 0 -11 -86 -200 -91 -200 -5 0 -118 227 -142 285 -5 11 8 1 27 -21 19 -23 49 -47 65 -54z m-493 52 c1 -19 -4 -22 -38 -22 -39 0 -39 0 -36 -37 3 -37 4 -38 46 -41 23 -2 42 -7 42 -12 0 -4 3 -15 6 -24 5 -13 -1 -16 -34 -16 -72 0 -133 12 -123 24 5 6 5 37 0 71 -4 33 -5 63 -1 67 6 6 103 16 127 13 6 -1 11 -11 11 -23z m-652 2 c19 -19 20 -25 3 -49 -19 -25 -37 -10 -37 31 0 37 10 43 34 18z m-134 -39 l0 -45 -45 0 c-58 0 -59 19 -2 59 23 17 43 30 45 31 1 0 2 -20 2 -45z m-112 18 c32 -5 32 -6 15 -25 -24 -27 -6 -52 41 -56 34 -3 36 -5 36 -37 0 -33 -1 -34 -32 -29 -54 9 -114 34 -133 54 -17 19 -23 79 -10 100 4 7 16 9 29 5 11 -4 36 -9 54 -12z m2035 -37 c53 -1 58 -3 53 -21 -3 -11 -13 -57 -23 -102 -9 -46 -20 -83 -23 -83 -4 0 -113 198 -129 233 -2 5 12 1 30 -9 21 -11 57 -18 92 -18z m-1143 -173 c59 -49 80 -72 80 -90 l0 -24 -43 31 c-24 17 -72 57 -108 90 -61 56 -63 59 -36 60 20 0 50 -18 107 -67z"/>
 <path d="M1834 539 c-5 -8 -11 -38 -14 -68 -6 -67 -34 -92 -106 -96 -28 -2 -49 -8 -48 -14 1 -6 2 -18 3 -26 1 -20 80 -20 124 -1 58 27 70 42 74 98 5 59 -17 131 -33 107z"/>
 <path d="M1206 1183 c-14 -14 -4 -23 36 -33 22 -7 79 -29 126 -51 50 -23 89 -36 95 -30 8 8 -49 51 -67 51 -4 0 -31 11 -59 24 -86 40 -120 50 -131 39z"/>
 </g>
<g id="layer107" fill="#8c7b84" stroke="none">
 <path d="M1262 1609 c-38 -11 -121 -59 -177 -102 -58 -45 -235 -219 -235 -231 0 -6 16 -24 36 -40 l36 -28 -33 -17 c-54 -26 -104 -82 -119 -134 -11 -42 -11 -125 1 -177 3 -12 -9 -16 -58 -18 l-63 -3 -17 36 c-9 19 -19 35 -22 35 -3 0 -24 -16 -46 -34 l-40 -34 24 -33 24 -32 -24 6 c-13 4 -27 7 -31 7 -5 0 -8 23 -8 51 l0 50 -47 -3 c-25 -2 -48 -8 -50 -14 -2 -6 10 -8 30 -6 40 5 48 -11 40 -81 -3 -27 -1 -47 6 -51 6 -4 11 -34 11 -67 0 -51 3 -59 18 -59 26 0 52 31 52 62 0 21 6 27 30 30 49 7 56 -53 12 -103 -26 -29 -35 -32 -105 -37 l-76 -5 -3 74 c-2 41 1 88 6 105 12 45 1 78 -41 125 -44 49 -73 65 -136 74 -65 10 -77 -2 -77 -76 l0 -59 60 0 c73 0 78 -15 19 -55 -107 -75 -88 -183 39 -219 78 -22 112 -21 112 2 0 15 11 18 77 21 83 3 120 16 151 56 l20 25 32 -50 c18 -27 35 -50 39 -50 4 0 26 39 50 87 l43 87 13 -30 c11 -26 79 -94 95 -94 3 0 59 -53 125 -117 127 -125 246 -213 385 -286 92 -48 221 -103 260 -111 14 -3 36 -8 50 -11 39 -10 231 -16 243 -8 7 4 15 8 20 9 4 1 9 3 12 4 3 1 8 3 13 4 4 1 26 14 48 28 64 41 88 99 82 201 -3 55 -11 95 -24 120 l-20 39 -17 -26 c-15 -22 -15 -33 -6 -73 25 -112 -36 -223 -123 -223 -15 0 -30 -5 -34 -11 -12 -19 -208 -4 -283 21 -104 35 -331 154 -318 166 9 9 121 -25 184 -55 120 -59 180 -74 298 -78 124 -4 146 3 182 56 17 25 23 48 23 87 0 30 4 54 9 54 5 0 44 61 86 136 l77 136 23 -39 c12 -21 43 -77 69 -126 26 -48 50 -87 54 -87 5 0 128 488 150 597 3 19 -5 24 -82 49 -47 15 -88 26 -91 23 -2 -3 -14 -56 -26 -118 -12 -62 -25 -109 -29 -104 -4 4 -22 45 -41 90 -19 46 -37 83 -40 83 -6 0 -60 -115 -75 -160 -7 -21 -9 -17 -15 30 -4 30 -7 83 -8 117 -1 34 -5 64 -9 67 -12 7 -92 -15 -92 -26 0 -6 16 -7 39 -3 l39 6 7 -107 c4 -59 11 -119 15 -133 7 -26 7 -26 28 14 20 39 21 39 22 12 1 -100 123 -186 224 -159 20 6 36 7 36 4 0 -17 -56 -242 -60 -242 -3 0 -34 54 -69 120 -35 66 -67 117 -72 114 -4 -2 -39 -61 -76 -129 -37 -69 -71 -125 -74 -125 -3 0 -23 73 -43 163 -21 89 -45 181 -53 204 -12 39 -12 46 6 85 10 24 27 61 37 83 10 22 19 43 21 46 6 10 -159 121 -166 113 -4 -5 -16 -31 -26 -59 -10 -27 -20 -53 -24 -56 -3 -4 -43 -9 -87 -13 l-81 -6 -22 60 c-13 34 -26 60 -29 58 -69 -32 -152 -81 -152 -88 0 -6 -11 -5 -27 3 -28 14 -167 61 -211 70 -15 4 -25 -1 -32 -13 -9 -17 -5 -20 27 -25 66 -11 146 -36 210 -65 50 -23 66 -36 82 -69 l21 -40 -32 18 c-18 11 -75 36 -127 56 -83 33 -102 37 -162 33 -55 -3 -73 -8 -94 -28 -47 -44 -21 -59 59 -31 40 14 140 11 155 -5 16 -16 -9 -304 -29 -347 -15 -32 -16 -39 -4 -44 16 -6 19 -53 4 -53 -5 0 -24 13 -42 30 -31 28 -32 29 -10 30 25 0 26 2 11 52 -9 36 -12 38 -49 38 -33 0 -40 3 -40 20 0 11 5 20 10 20 6 0 10 -4 10 -10 0 -5 9 -10 21 -10 11 0 17 5 14 10 -3 6 -1 10 4 10 6 0 11 20 11 45 0 45 0 45 -35 45 -53 0 -42 18 13 22 l47 3 3 59 3 59 -105 -7 c-102 -6 -106 -6 -106 14 0 28 -41 26 -105 -4 -67 -31 -95 -64 -102 -118 -3 -23 -26 -83 -51 -131 l-45 -89 -30 49 c-17 26 -36 66 -43 89 -11 39 -11 40 10 39 12 -1 27 -13 35 -29 15 -31 23 -27 44 26 16 39 14 48 -15 48 -13 0 -18 7 -18 25 0 22 4 25 33 25 28 0 36 5 50 36 17 35 18 36 42 20 27 -18 35 -20 35 -8 0 4 -12 15 -27 24 -59 34 -34 181 38 226 59 36 80 36 122 2 44 -37 46 -46 12 -54 -38 -10 -93 -71 -101 -111 -3 -20 -4 -38 -1 -41 12 -12 45 8 51 30 7 30 70 86 99 87 12 1 30 2 40 3 12 1 31 31 61 98 66 146 116 228 139 228 5 0 7 -7 3 -15 -6 -16 19 -21 29 -6 5 10 -20 41 -34 41 -10 0 -54 -48 -76 -82 -11 -17 -33 -32 -59 -40 -26 -8 -60 -31 -94 -65 -29 -29 -56 -53 -60 -53 -4 0 -36 27 -72 60 l-65 59 105 104 c195 192 315 248 425 198 74 -33 131 -126 155 -249 7 -34 17 -62 21 -62 13 0 11 24 -7 93 -49 191 -170 287 -312 246z m665 -551 c35 -24 63 -47 62 -53 0 -5 -19 -50 -42 -99 l-42 -89 -1 47 c-1 59 -25 95 -82 123 -6 2 31 113 37 113 3 0 34 -19 68 -42z m-330 -23 c16 -48 31 -65 54 -65 16 0 15 -3 -6 -24 -31 -31 -49 -95 -41 -140 13 -67 94 -136 159 -136 13 0 41 12 62 26 21 14 35 19 33 12 -24 -62 -114 -258 -119 -258 -7 0 -279 553 -279 567 0 10 101 63 114 59 5 -1 15 -19 23 -41z m814 4 c35 -12 65 -23 67 -24 2 -2 -2 -23 -9 -48 l-11 -45 -29 33 c-17 19 -46 39 -64 45 -27 9 -35 17 -35 36 0 29 0 29 81 3z m-208 -68 c3 -12 -6 -28 -25 -45 -17 -14 -28 -20 -26 -14 3 7 11 30 18 50 14 39 24 41 33 9z m-1876 -52 c54 -26 93 -81 93 -130 0 -38 2 -36 -95 -114 -25 -20 -28 -27 -19 -42 7 -11 26 -19 48 -21 34 -3 36 -5 36 -37 0 -33 -1 -34 -32 -29 -54 9 -114 34 -133 54 -33 36 -14 140 23 125 9 -4 34 -9 54 -12 74 -11 117 79 63 132 -29 30 -69 32 -110 5 -47 -31 -55 -27 -55 35 l0 55 42 0 c23 0 61 -9 85 -21z m261 -48 c-15 -18 -27 -25 -33 -19 -7 6 -1 16 15 28 37 28 45 24 18 -9z m344 -58 c6 -8 4 -21 -7 -37 -10 -15 -14 -33 -10 -46 9 -29 63 -60 103 -60 31 0 32 -2 32 -39 l0 -40 -37 6 c-57 8 -125 45 -150 83 -39 56 -25 161 24 189 15 8 20 5 27 -17 5 -15 13 -32 18 -39z m288 27 c0 -33 -3 -40 -20 -40 -17 0 -19 5 -14 25 4 15 1 32 -6 40 -10 13 -8 15 14 15 24 0 26 -4 26 -40z m-201 -21 c-29 -18 -36 -10 -18 23 11 20 12 20 21 3 8 -12 7 -20 -3 -26z m726 4 c-3 -10 -9 -30 -12 -45 -8 -39 -20 -35 -32 10 -15 52 -15 52 20 52 26 0 30 -3 24 -17z m-188 -59 c30 -57 33 -68 38 -195 3 -74 8 -167 11 -208 5 -73 5 -73 -18 -68 -311 71 -298 67 -298 95 0 49 22 347 26 351 3 3 10 -1 16 -7 29 -29 87 -3 132 59 17 24 35 39 45 37 9 -2 30 -30 48 -64z m383 34 c0 -7 3 -24 7 -37 4 -16 3 -22 -5 -17 -6 3 -15 -1 -21 -11 -7 -13 -2 -26 22 -57 24 -30 38 -67 59 -154 16 -63 27 -117 25 -119 -2 -2 -14 24 -26 57 -23 63 -97 190 -111 190 -21 0 -18 -37 8 -79 80 -132 83 -245 7 -295 -14 -9 -34 -14 -45 -11 -10 3 -21 1 -25 -5 -8 -13 -72 -13 -137 2 -29 6 -58 11 -64 10 -8 -2 -13 53 -16 180 -3 101 -3 185 -2 187 2 2 30 -51 63 -119 l60 -123 34 74 c18 41 60 134 92 207 54 120 75 153 75 120z m-902 -37 c4 -39 -10 -35 -34 10 -15 30 -15 30 8 27 18 -2 24 -10 26 -37z m-71 -11 c8 -22 20 -32 43 -36 38 -8 34 -30 -6 -26 -42 5 -74 29 -74 56 0 44 21 48 37 6z m-239 -5 c-10 -23 -12 -23 -24 -7 -19 25 -17 32 11 32 23 0 24 -2 13 -25z m449 -5 c21 0 24 -4 21 -27 -3 -24 -8 -27 -38 -28 -33 0 -35 -2 -35 -35 0 -34 1 -35 43 -38 23 -2 42 -7 42 -12 0 -4 3 -15 6 -24 5 -13 -1 -16 -34 -16 -72 0 -133 12 -123 24 5 6 5 38 0 76 -13 88 -9 94 48 86 25 -3 57 -6 70 -6z m-633 -26 c19 -19 20 -25 3 -49 -19 -25 -37 -10 -37 31 0 37 10 43 34 18z m-134 -39 l0 -45 -46 0 c-37 0 -45 3 -42 17 2 13 70 71 86 73 1 0 2 -20 2 -45z m780 -192 c59 -49 80 -72 80 -90 l0 -24 -43 31 c-24 17 -72 57 -108 90 -61 56 -63 59 -36 60 20 0 50 -18 107 -67z"/>
 <path d="M1834 539 c-5 -8 -11 -38 -14 -68 -6 -67 -34 -92 -106 -96 -28 -2 -49 -8 -48 -14 1 -6 2 -18 3 -26 1 -20 80 -20 124 -1 58 27 70 42 74 98 5 59 -17 131 -33 107z"/>
 <path d="M1206 1183 c-14 -14 -4 -23 36 -33 22 -7 79 -29 126 -51 50 -23 89 -36 95 -30 8 8 -49 51 -67 51 -4 0 -31 11 -59 24 -86 40 -120 50 -131 39z"/>
 </g>
<g id="layer108" fill="#f1a107" stroke="none">
 <path d="M1310 1612 c-100 -13 -227 -96 -374 -246 l-89 -90 44 -38 c35 -30 40 -38 24 -38 -32 -1 -110 -64 -131 -106 -19 -39 -26 -139 -14 -209 l5 -30 -62 -3 c-61 -3 -62 -2 -79 30 -9 18 -18 35 -20 37 -2 2 -22 -9 -44 -24 -39 -27 -39 -28 -24 -54 16 -27 101 -96 119 -96 6 0 16 -4 23 -9 10 -6 11 -1 6 18 -5 23 -3 26 20 26 32 0 34 -22 5 -51 -15 -15 -18 -24 -10 -32 7 -7 16 2 29 34 22 49 20 59 -9 59 -14 0 -19 7 -19 25 0 22 4 25 33 25 28 0 36 5 50 36 17 35 18 36 42 20 28 -18 35 -20 35 -7 0 5 -13 14 -28 20 -25 11 -28 17 -30 66 -4 96 30 151 118 187 35 15 36 15 79 -22 l43 -37 -46 -22 c-53 -26 -85 -66 -93 -116 -4 -26 -2 -35 8 -35 21 0 36 13 43 36 11 35 61 75 111 88 l47 12 55 121 c60 134 113 206 134 186 17 -17 30 -16 23 1 -16 41 -62 19 -105 -51 -14 -23 -33 -36 -62 -45 -27 -8 -61 -31 -95 -65 -29 -29 -56 -53 -60 -53 -4 0 -36 27 -72 60 l-65 59 105 104 c195 192 315 248 425 198 72 -32 129 -123 154 -244 7 -31 17 -57 22 -57 16 0 -19 126 -56 200 -49 96 -126 144 -215 132z m-722 -741 c-15 -18 -27 -25 -33 -19 -7 6 -1 16 15 28 37 28 45 24 18 -9z"/>
 <path d="M1206 1183 c-14 -14 -4 -23 36 -33 22 -7 79 -29 126 -51 50 -23 89 -36 95 -30 8 8 -49 51 -67 51 -4 0 -31 11 -59 24 -86 40 -120 50 -131 39z"/>
 <path d="M1846 1118 c-3 -7 -12 -36 -21 -65 -16 -50 -18 -52 -58 -58 -23 -4 -64 -5 -91 -3 l-49 3 -20 53 c-11 28 -24 52 -29 52 -23 0 -147 -73 -141 -83 4 -7 0 -8 -13 -2 -50 21 -181 67 -216 74 -32 8 -40 6 -48 -10 -9 -16 -5 -19 27 -24 63 -11 137 -33 209 -64 52 -22 71 -36 85 -62 25 -47 24 -51 -13 -30 -18 11 -75 36 -127 56 -83 33 -102 37 -162 33 -55 -3 -73 -8 -94 -28 -14 -13 -25 -29 -25 -35 0 -14 44 -12 83 4 35 14 107 14 141 1 28 -10 28 -14 12 -222 -2 -16 -3 -53 -4 -84 -1 -30 -6 -53 -10 -50 -4 2 -13 -4 -20 -15 -10 -16 -10 -21 3 -25 17 -7 21 -54 5 -54 -6 0 -27 16 -48 36 -32 30 -34 34 -13 29 23 -7 23 -6 16 31 -9 52 -13 56 -43 54 -47 -3 -53 -1 -50 22 4 25 28 37 28 14 0 -9 8 -16 21 -16 11 0 17 5 14 10 -3 6 -1 10 4 10 6 0 11 18 11 40 0 39 -1 40 -35 40 -29 0 -35 4 -35 21 0 18 5 20 40 18 21 -2 41 -1 43 1 3 3 8 26 11 53 l7 47 -100 0 -101 0 0 -34 c0 -24 -5 -36 -17 -39 -17 -4 -17 -5 0 -6 13 -1 17 -10 17 -43 l-1 -43 -19 24 c-31 37 -35 66 -12 103 20 32 23 60 10 74 -4 3 -31 -1 -61 -10 -68 -20 -137 -90 -137 -138 0 -17 -21 -70 -46 -120 l-47 -90 -30 48 c-16 26 -37 66 -47 89 -20 47 -55 78 -106 95 -32 11 -34 14 -34 56 0 43 -1 44 -35 46 -19 0 -40 1 -47 2 -6 1 -13 -4 -15 -10 -2 -6 10 -9 30 -6 40 5 48 -11 40 -81 -3 -27 -1 -47 6 -51 6 -4 11 -34 11 -67 0 -51 3 -59 18 -59 26 0 52 31 52 62 0 21 6 27 30 30 70 10 38 -121 -33 -135 -21 -4 -21 -4 2 -6 15 -1 36 12 58 35 32 35 35 36 48 18 8 -11 15 -23 15 -27 0 -5 9 -20 20 -34 l19 -25 43 86 c23 47 46 86 50 86 3 0 9 -9 13 -20 7 -24 92 -100 111 -100 8 0 14 -6 14 -14 0 -23 213 -219 309 -285 129 -88 349 -198 431 -215 14 -3 36 -8 50 -11 50 -13 233 -15 246 -4 8 6 14 8 14 4 0 -4 6 -3 13 3 6 6 17 11 22 13 34 8 85 53 105 94 19 40 22 58 18 128 -3 55 -11 95 -24 120 l-20 39 -17 -26 c-15 -22 -15 -33 -6 -73 25 -112 -36 -223 -123 -223 -15 0 -30 -5 -34 -11 -12 -19 -208 -4 -284 21 -94 32 -349 164 -338 175 6 6 144 -28 158 -40 25 -20 154 -73 218 -89 72 -19 227 -21 262 -3 43 22 70 74 70 133 0 30 4 54 8 54 4 0 26 32 47 71 22 39 52 92 67 118 15 25 30 54 34 64 9 24 20 21 37 -10 43 -84 101 -190 112 -206 13 -18 13 -18 19 0 8 26 134 554 138 578 2 16 -9 24 -72 47 -41 15 -80 27 -86 27 -5 1 -19 -45 -29 -101 -27 -154 -26 -153 -69 -52 -21 49 -41 92 -45 96 -4 5 -24 -33 -45 -82 -21 -50 -42 -90 -47 -90 -5 0 -9 31 -9 69 0 37 -3 89 -6 115 -7 51 -17 55 -69 31 l-30 -15 41 6 42 5 7 -107 c4 -59 11 -119 15 -133 7 -26 7 -26 28 14 20 39 21 39 22 12 1 -100 123 -186 224 -159 20 6 36 7 36 4 0 -17 -56 -242 -60 -242 -3 0 -34 54 -69 120 -35 66 -67 117 -72 114 -4 -2 -39 -61 -76 -129 -37 -69 -71 -125 -74 -125 -3 0 -25 82 -48 183 -24 100 -48 189 -53 197 -9 15 -5 -20 9 -65 5 -17 4 -18 -10 -7 -13 11 -17 10 -25 -5 -8 -14 -3 -27 25 -61 29 -35 39 -62 59 -150 13 -58 23 -110 21 -116 -2 -5 -13 19 -26 53 -23 64 -97 191 -111 191 -21 0 -18 -37 8 -79 80 -132 83 -245 7 -295 -14 -9 -34 -14 -45 -11 -10 3 -21 1 -25 -5 -8 -13 -72 -13 -137 2 -29 6 -58 11 -64 10 -11 -2 -30 365 -20 375 3 3 31 -49 62 -116 32 -67 61 -118 65 -114 16 16 269 588 265 599 -2 5 -38 34 -80 63 -52 35 -77 48 -80 39z m81 -60 c35 -24 63 -47 62 -53 0 -5 -19 -50 -42 -99 l-42 -89 -1 47 c-1 59 -25 95 -82 123 -6 2 31 113 37 113 3 0 34 -19 68 -42z m-330 -23 c16 -48 31 -65 54 -65 16 0 15 -3 -6 -24 -31 -31 -49 -95 -41 -140 13 -67 94 -136 159 -136 13 0 41 12 62 26 21 14 35 19 33 12 -24 -62 -114 -258 -119 -258 -7 0 -279 553 -279 567 0 10 101 63 114 59 5 -1 15 -19 23 -41z m814 4 c35 -12 65 -23 67 -24 2 -2 -2 -23 -9 -48 l-11 -45 -29 33 c-17 19 -46 39 -64 45 -27 9 -35 17 -35 36 0 29 0 29 81 3z m-208 -68 c3 -12 -6 -28 -25 -45 -17 -14 -28 -20 -26 -14 3 7 11 30 18 50 14 39 24 41 33 9z m-1271 -158 c6 -8 4 -21 -7 -37 -10 -15 -14 -33 -10 -46 9 -29 63 -60 103 -60 31 0 32 -2 32 -39 l0 -40 -37 6 c-57 8 -125 45 -150 83 -39 56 -25 161 24 189 15 8 20 5 27 -17 5 -15 13 -32 18 -39z m288 27 c0 -33 -3 -40 -20 -40 -17 0 -19 5 -14 25 4 15 1 32 -6 40 -10 13 -8 15 14 15 24 0 26 -4 26 -40z m532 4 c7 -6 -23 -104 -32 -104 -3 0 -12 17 -19 38 -8 20 -16 42 -18 49 -6 15 56 31 69 17z m-195 -80 c30 -57 33 -68 38 -195 3 -74 8 -167 11 -208 5 -73 5 -73 -18 -68 -311 71 -298 67 -298 95 0 49 22 347 26 351 3 3 10 -1 16 -7 29 -29 87 -3 132 59 17 24 35 39 45 37 9 -2 30 -30 48 -64z m-547 -50 c30 -10 35 -10 38 5 7 29 18 32 86 25 65 -7 67 -8 64 -32 -3 -22 -8 -26 -38 -27 -33 0 -35 -2 -35 -35 0 -34 1 -35 43 -38 23 -2 42 -7 42 -12 0 -4 3 -15 6 -24 5 -13 -1 -16 -34 -16 -21 0 -59 3 -83 6 l-44 6 3 54 4 54 -40 0 c-29 0 -49 7 -71 26 -35 29 -38 45 -14 69 15 16 17 15 27 -17 8 -25 20 -36 46 -44z m-460 -5 c9 -16 8 -26 -5 -45 -21 -33 -35 -22 -35 27 0 44 21 54 40 18z m647 -231 c63 -53 80 -73 76 -88 -5 -19 -8 -18 -46 10 -59 43 -167 140 -167 149 0 23 65 -10 137 -71z"/>
 <path d="M187 943 c-4 -3 -7 -33 -7 -65 l0 -58 60 0 c74 0 77 -13 16 -64 -112 -91 -65 -198 97 -221 l47 -6 0 45 c0 41 -2 46 -22 46 -37 0 -68 11 -68 24 0 13 84 76 100 76 6 0 10 -33 10 -75 l0 -75 63 2 62 2 -57 3 -58 4 -1 72 c-1 40 0 77 1 82 2 6 3 27 2 47 -2 66 -44 123 -114 153 -38 15 -119 21 -131 8z m140 -24 c54 -26 93 -81 93 -130 0 -38 2 -36 -95 -114 -25 -20 -28 -27 -19 -42 7 -11 26 -19 48 -21 34 -3 36 -5 36 -37 0 -33 -1 -34 -32 -29 -54 9 -114 34 -133 54 -33 36 -14 140 23 125 9 -4 34 -9 54 -12 74 -11 117 79 63 132 -29 30 -69 32 -110 5 -47 -31 -55 -27 -55 35 l0 55 42 0 c23 0 61 -9 85 -21z"/>
 <path d="M1834 539 c-5 -8 -11 -38 -14 -68 -6 -67 -34 -92 -106 -96 -28 -2 -49 -8 -48 -14 1 -6 2 -18 3 -26 1 -20 80 -20 124 -1 58 27 70 42 74 98 5 59 -17 131 -33 107z"/>
 </g>
<g id="layer109" fill="#60b2bc" stroke="none">
 <path d="M1310 1612 c-100 -13 -227 -96 -374 -246 l-89 -90 48 -41 47 -42 -33 -14 c-19 -7 -50 -28 -71 -47 -43 -39 -64 -108 -55 -184 4 -27 2 -60 -3 -73 -9 -23 -15 -25 -69 -25 -58 0 -61 1 -77 33 -9 17 -18 34 -20 36 -2 2 -22 -9 -44 -24 -39 -27 -39 -28 -24 -54 16 -27 101 -96 119 -96 6 0 16 -4 23 -9 10 -6 11 -1 6 18 -5 23 -3 26 20 26 32 0 34 -22 5 -51 -15 -15 -18 -24 -10 -32 7 -7 16 2 29 34 22 49 20 59 -9 59 -14 0 -19 7 -19 25 0 22 4 25 33 25 28 0 36 5 50 36 17 35 18 36 42 20 28 -18 35 -20 35 -7 0 5 -13 14 -28 20 -25 11 -28 17 -30 69 -3 85 27 139 97 174 l55 27 54 -47 54 -46 -40 -14 c-52 -17 -87 -53 -99 -101 -9 -34 -8 -38 8 -34 9 3 20 15 23 27 9 35 60 77 111 90 l47 12 55 121 c60 134 113 206 134 186 17 -17 30 -16 23 1 -16 41 -62 19 -105 -51 -14 -23 -33 -36 -62 -45 -27 -8 -61 -31 -95 -65 -29 -29 -56 -53 -60 -53 -4 0 -36 27 -72 60 l-65 59 105 104 c195 192 315 248 425 198 72 -32 129 -123 154 -244 7 -31 17 -57 22 -57 16 0 -19 126 -56 200 -49 96 -126 144 -215 132z m-722 -741 c-15 -18 -27 -25 -33 -19 -7 6 -1 16 15 28 37 28 45 24 18 -9z"/>
 <path d="M1212 1168 c2 -6 11 -12 19 -14 7 -1 28 -5 44 -8 17 -3 23 -3 15 0 -69 29 -81 33 -78 22z"/>
 <path d="M1846 1118 c-3 -7 -12 -36 -21 -65 -16 -50 -18 -52 -58 -58 -23 -4 -64 -5 -91 -3 l-49 3 -20 53 c-11 28 -24 52 -29 52 -6 0 -41 -16 -78 -36 -55 -29 -67 -39 -63 -55 6 -20 5 -20 -28 0 -39 22 -194 71 -226 71 -38 0 -35 -19 4 -25 63 -11 137 -33 209 -64 52 -22 71 -36 85 -62 29 -54 24 -62 -21 -39 -144 74 -282 105 -336 77 -69 -35 -59 -71 10 -42 41 17 113 19 150 5 28 -10 28 -14 12 -222 -2 -16 -3 -53 -4 -84 -1 -30 -6 -53 -11 -50 -5 3 -11 -1 -15 -9 -3 -8 -1 -17 4 -20 13 -8 13 -65 0 -65 -6 0 -27 16 -48 36 -32 30 -34 34 -13 29 23 -7 23 -6 16 31 -9 52 -13 56 -43 54 -47 -3 -53 -1 -50 22 4 25 28 37 28 14 0 -9 8 -16 21 -16 11 0 17 5 14 10 -3 6 -1 10 4 10 6 0 11 18 11 40 0 39 -1 40 -35 40 -29 0 -35 4 -35 21 0 18 5 20 40 18 21 -2 41 -1 43 1 3 3 8 26 11 53 l7 47 -100 0 -101 0 0 -34 c0 -24 -5 -36 -17 -39 -17 -4 -17 -5 0 -6 13 -1 17 -10 17 -43 l-1 -43 -19 24 c-31 37 -35 66 -12 103 20 32 23 60 10 74 -4 3 -31 -1 -61 -10 -68 -20 -137 -90 -137 -138 0 -17 -21 -70 -46 -120 l-47 -90 -30 48 c-16 26 -37 66 -47 89 -20 47 -55 78 -106 95 -32 11 -34 14 -34 56 0 43 -1 44 -35 46 -19 0 -40 1 -47 2 -6 1 -13 -4 -15 -10 -2 -6 10 -9 30 -6 40 5 48 -11 40 -81 -3 -27 -1 -47 6 -51 6 -4 11 -34 11 -67 0 -51 3 -59 18 -59 26 0 52 31 52 62 0 21 6 27 30 30 70 10 38 -121 -33 -135 -21 -4 -21 -4 2 -6 15 -1 36 12 58 35 32 35 35 36 48 18 8 -11 15 -23 15 -27 0 -5 9 -20 20 -34 l19 -25 43 86 c23 47 46 86 50 86 3 0 9 -9 13 -20 7 -22 92 -100 109 -100 6 0 43 -32 81 -71 188 -190 406 -330 630 -402 163 -52 285 -55 388 -8 40 18 88 66 93 94 15 70 15 94 -1 162 -16 65 -20 74 -32 62 -11 -11 -12 -23 -3 -63 20 -88 -4 -164 -66 -205 -16 -10 -41 -19 -56 -19 -15 0 -30 -5 -34 -11 -12 -19 -208 -4 -284 21 -96 33 -349 164 -338 176 7 7 213 -48 228 -61 30 -27 174 -67 257 -73 113 -7 167 13 194 72 24 53 24 89 -1 161 -27 78 -109 210 -122 197 -7 -7 -1 -26 19 -59 81 -132 85 -247 10 -296 -36 -23 -133 -31 -203 -16 -32 7 -64 12 -70 11 -11 -2 -30 365 -20 375 3 3 31 -49 62 -116 32 -67 61 -118 65 -114 16 16 269 588 265 599 -2 5 -38 34 -80 63 -52 35 -77 48 -80 39z m81 -60 c35 -24 63 -47 62 -53 0 -5 -19 -50 -42 -99 l-42 -89 -1 47 c-1 59 -25 95 -82 123 -6 2 31 113 37 113 3 0 34 -19 68 -42z m-330 -23 c16 -48 31 -65 54 -65 16 0 15 -3 -6 -24 -31 -31 -49 -95 -41 -140 13 -67 94 -136 159 -136 13 0 41 12 62 26 21 14 35 19 33 12 -24 -62 -114 -258 -119 -258 -7 0 -279 553 -279 567 0 10 101 63 114 59 5 -1 15 -19 23 -41z m-665 -222 c6 -8 4 -21 -7 -37 -10 -15 -14 -33 -10 -46 9 -29 63 -60 103 -60 31 0 32 -2 32 -39 l0 -40 -37 6 c-57 8 -125 45 -150 83 -39 56 -25 161 24 189 15 8 20 5 27 -17 5 -15 13 -32 18 -39z m288 27 c0 -33 -3 -40 -20 -40 -17 0 -19 5 -14 25 4 15 1 32 -6 40 -10 13 -8 15 14 15 24 0 26 -4 26 -40z m532 4 c7 -6 -23 -104 -32 -104 -3 0 -12 17 -19 38 -8 20 -16 42 -18 49 -6 15 56 31 69 17z m-195 -80 c30 -57 33 -68 38 -195 3 -74 8 -167 11 -208 5 -73 5 -73 -18 -68 -311 71 -298 67 -298 95 0 49 22 347 26 351 3 3 10 -1 16 -7 29 -29 87 -3 132 59 17 24 35 39 45 37 9 -2 30 -30 48 -64z m-534 -55 c22 -6 27 -4 27 11 0 28 13 31 85 24 64 -7 66 -8 63 -32 -3 -22 -8 -26 -38 -27 -33 0 -35 -2 -35 -35 0 -34 1 -35 43 -38 23 -2 42 -7 42 -12 0 -4 3 -15 6 -24 5 -13 -1 -16 -34 -16 -21 0 -59 3 -83 6 l-44 6 3 54 4 54 -40 0 c-29 0 -49 7 -71 26 -35 29 -38 45 -15 69 16 15 18 14 38 -21 13 -23 31 -40 49 -45z m-473 0 c9 -16 8 -26 -5 -45 -21 -33 -35 -22 -35 27 0 44 21 54 40 18z m605 -184 c77 -60 124 -112 118 -134 -5 -21 -6 -20 -46 9 -58 43 -167 140 -167 149 0 15 66 -2 95 -24z"/>
 <path d="M2015 1065 l-30 -15 41 6 42 5 7 -107 c4 -59 11 -119 15 -133 7 -26 7 -26 28 14 20 39 21 39 22 12 1 -100 123 -186 224 -159 20 6 36 7 36 4 0 -17 -56 -242 -60 -242 -3 0 -34 54 -69 120 -35 66 -67 117 -72 114 -4 -2 -39 -61 -76 -129 -37 -69 -71 -125 -74 -125 -3 0 -25 82 -48 183 -24 100 -48 189 -53 197 -7 11 -8 8 -3 -10 3 -14 8 -47 11 -75 l6 -50 -20 28 c-11 16 -22 25 -26 19 -3 -5 6 -20 20 -33 38 -35 48 -62 75 -186 13 -62 26 -113 29 -113 3 0 24 32 45 71 22 39 52 92 67 118 15 25 30 54 34 64 9 24 20 21 37 -10 43 -84 101 -190 112 -206 13 -18 13 -18 19 0 8 26 134 554 138 578 2 16 -9 24 -72 47 -41 15 -80 27 -86 27 -5 1 -19 -45 -29 -101 -27 -154 -26 -153 -69 -52 -21 49 -41 92 -45 96 -4 5 -24 -33 -45 -82 -21 -50 -42 -90 -47 -90 -5 0 -9 31 -9 69 0 37 -3 89 -6 115 -7 51 -17 55 -69 31z m396 -26 c35 -12 65 -23 67 -24 2 -2 -2 -23 -9 -48 l-11 -45 -29 33 c-17 19 -46 39 -64 45 -27 9 -35 17 -35 36 0 29 0 29 81 3z m-208 -68 c3 -12 -6 -28 -25 -45 -17 -14 -28 -20 -26 -14 3 7 11 30 18 50 14 39 24 41 33 9z"/>
 <path d="M187 943 c-4 -3 -7 -33 -7 -65 l0 -58 60 0 c74 0 77 -13 16 -64 -112 -91 -65 -198 97 -221 l47 -6 0 45 c0 41 -2 46 -22 46 -37 0 -68 11 -68 24 0 13 84 76 100 76 6 0 10 -33 10 -75 l0 -75 63 2 62 2 -57 3 -58 4 -1 72 c-1 40 0 77 1 82 2 6 3 27 2 47 -2 66 -44 123 -114 153 -38 15 -119 21 -131 8z m140 -24 c54 -26 93 -81 93 -130 0 -38 2 -36 -95 -114 -25 -20 -28 -27 -19 -42 7 -11 26 -19 48 -21 34 -3 36 -5 36 -37 0 -33 -1 -34 -32 -29 -54 9 -114 34 -133 54 -33 36 -14 140 23 125 9 -4 34 -9 54 -12 74 -11 117 79 63 132 -29 30 -69 32 -110 5 -47 -31 -55 -27 -55 35 l0 55 42 0 c23 0 61 -9 85 -21z"/>
 <path d="M1826 519 c-3 -8 -7 -34 -8 -58 -4 -56 -35 -82 -104 -86 -45 -3 -50 -7 -45 -33 2 -15 79 -13 120 4 53 21 75 61 68 122 -5 47 -23 76 -31 51z"/>
 </g>
<g id="layer110" fill="#f0cf23" stroke="none">
 <path d="M1310 1612 c-101 -13 -227 -96 -374 -246 l-89 -90 48 -41 47 -41 -40 -18 c-55 -25 -98 -73 -111 -123 -14 -52 -11 -194 3 -162 9 20 14 20 61 5 11 -4 6 1 -10 9 -28 15 -31 21 -33 73 -3 85 27 139 97 174 l55 27 54 -47 54 -46 -40 -14 c-52 -17 -87 -53 -99 -101 -9 -34 -8 -38 8 -34 9 3 20 15 23 27 9 35 60 77 111 90 l47 12 55 121 c30 67 69 139 88 160 29 34 34 36 50 23 16 -13 18 -13 13 0 -2 8 -14 16 -26 18 -16 2 -30 -10 -57 -47 -28 -39 -46 -54 -78 -63 -28 -8 -60 -31 -98 -68 l-55 -57 -64 53 c-35 29 -67 57 -71 61 -13 13 111 144 205 217 110 86 157 109 233 114 53 4 69 1 106 -22 26 -15 57 -45 75 -73 32 -51 72 -161 72 -200 0 -12 5 -23 10 -23 11 0 7 27 -17 105 -50 161 -141 242 -253 227z"/>
 <path d="M1212 1168 c2 -6 11 -12 19 -14 7 -1 28 -5 44 -8 17 -3 23 -3 15 0 -69 29 -81 33 -78 22z"/>
 <path d="M1830 1066 c-21 -64 -22 -65 -63 -71 -23 -4 -64 -5 -91 -3 l-49 3 -20 53 c-11 28 -24 52 -29 52 -6 0 -41 -16 -78 -36 -55 -29 -67 -39 -63 -55 6 -20 5 -20 -28 0 -39 22 -194 71 -226 71 -38 0 -35 -19 4 -25 63 -11 137 -33 209 -64 52 -22 71 -36 85 -62 29 -54 24 -62 -21 -39 -144 74 -282 105 -336 77 -69 -35 -59 -71 10 -42 41 17 113 19 150 5 28 -10 28 -14 12 -222 -2 -16 -3 -53 -4 -84 -1 -30 -6 -53 -11 -50 -5 3 -11 -1 -15 -9 -3 -8 -1 -17 4 -20 13 -8 13 -65 1 -65 -6 0 -31 18 -56 40 -42 36 -51 40 -98 39 -34 -1 -41 -4 -22 -6 33 -5 64 -27 137 -96 26 -25 50 -42 53 -39 3 3 5 29 5 58 0 55 19 256 25 262 2 2 12 -2 23 -9 37 -23 77 0 140 80 27 35 46 22 85 -56 l34 -68 7 -197 c5 -184 5 -198 -12 -197 -9 0 -82 15 -162 33 -131 30 -145 35 -151 57 -5 17 -7 19 -8 6 -1 -16 -8 -14 -48 15 -69 49 -190 170 -175 175 8 3 11 23 10 56 l-2 52 -3 -49 -4 -49 -47 7 -47 6 70 -71 c188 -190 406 -330 630 -402 163 -52 285 -55 388 -8 40 18 88 66 93 94 15 70 15 94 -1 162 -16 65 -20 74 -32 62 -11 -11 -12 -23 -3 -63 20 -88 -4 -164 -66 -205 -16 -10 -41 -19 -56 -19 -15 0 -30 -5 -34 -11 -12 -19 -208 -4 -284 21 -96 33 -349 164 -338 176 7 7 213 -48 228 -61 30 -27 174 -67 257 -73 113 -7 167 13 194 72 24 53 24 89 -1 161 -27 78 -109 210 -122 197 -7 -7 -1 -26 19 -59 81 -132 85 -247 10 -296 -36 -23 -133 -31 -203 -16 -32 7 -64 12 -70 11 -11 -2 -30 365 -20 375 3 3 31 -49 62 -116 32 -67 61 -118 65 -114 16 16 269 588 265 599 -2 5 -38 33 -79 62 l-75 52 -22 -64z m102 -6 l67 -50 -40 -87 c-22 -49 -43 -91 -47 -95 -4 -4 -7 13 -8 38 -1 47 -24 88 -60 108 -10 6 -21 12 -23 13 -6 4 31 123 38 123 3 -1 36 -23 73 -50z m-332 -27 c10 -34 20 -49 40 -56 l26 -10 -22 -22 c-30 -30 -48 -94 -40 -139 13 -67 94 -136 159 -136 13 0 41 11 61 25 20 13 36 21 36 17 0 -13 -115 -272 -121 -272 -4 0 -273 542 -287 579 -3 8 105 60 124 61 6 0 17 -21 24 -47z m152 -189 c7 -6 -23 -104 -32 -104 -3 0 -12 17 -19 38 -8 20 -16 42 -18 49 -6 15 56 31 69 17z"/>
 <path d="M2015 1065 c-26 -13 -26 -14 -5 -9 14 3 32 8 42 10 14 4 17 -6 22 -58 11 -112 13 -124 15 -72 0 28 -2 72 -5 98 -7 51 -18 55 -69 31z"/>
 <path d="M2305 978 c-27 -154 -26 -153 -69 -52 -21 49 -41 92 -45 97 -4 4 -22 -29 -41 -74 -18 -44 -39 -87 -47 -95 -8 -8 -13 -22 -11 -32 3 -13 9 -8 23 18 l19 35 6 -35 c19 -108 124 -179 224 -152 33 10 36 9 36 -11 0 -12 -13 -71 -28 -131 -21 -82 -30 -105 -38 -95 -6 8 -37 62 -68 122 -31 59 -61 107 -65 107 -4 0 -15 -17 -24 -37 -14 -30 -14 -34 -2 -19 8 11 15 23 15 28 0 29 28 -8 87 -118 53 -99 69 -122 75 -108 7 18 132 537 140 579 2 16 -9 24 -72 47 -41 15 -80 27 -86 27 -5 1 -19 -45 -29 -101z m175 23 c0 -10 -5 -32 -11 -49 l-11 -31 -29 34 c-17 19 -46 39 -64 45 -29 10 -35 16 -35 40 l0 29 75 -26 c55 -18 75 -29 75 -42z m-279 -22 c9 -18 7 -25 -21 -50 -36 -33 -44 -36 -31 -11 5 9 15 32 21 50 15 38 16 38 31 11z"/>
 <path d="M353 908 c16 -13 37 -34 48 -48 12 -14 17 -18 13 -10 -11 24 -47 61 -69 72 -11 5 -8 0 8 -14z"/>
 <path d="M949 914 c-46 -14 -119 -80 -119 -107 0 -6 6 -3 12 8 15 27 50 65 60 65 4 0 8 -6 8 -12 0 -7 7 -26 15 -42 8 -15 12 -33 9 -38 -4 -6 -1 -9 7 -6 8 3 22 -9 34 -30 24 -42 75 -63 75 -31 0 27 18 31 94 21 36 -5 66 -5 66 0 0 4 -16 8 -35 8 -29 0 -35 4 -35 21 0 18 5 20 40 18 21 -2 42 0 46 4 4 4 -5 7 -20 7 -23 0 -26 3 -20 25 3 14 1 32 -5 39 -10 12 -8 15 11 19 13 2 -16 5 -64 6 l-88 1 0 -34 c0 -19 -6 -37 -12 -39 -10 -4 -10 -6 0 -6 7 -1 12 -16 12 -43 l-1 -43 -19 24 c-31 37 -35 66 -12 103 23 37 23 72 1 75 -8 1 -35 -5 -60 -13z"/>
 <path d="M568 894 c-37 -26 -37 -27 -22 -53 22 -35 112 -104 125 -95 6 4 15 0 20 -7 7 -9 7 -5 3 14 -5 20 -2 27 9 27 10 0 13 8 9 26 -3 16 1 30 9 35 9 6 0 9 -29 9 -39 0 -44 3 -59 35 -9 19 -19 35 -22 35 -4 0 -23 -12 -43 -26z m19 -24 c-17 -20 -28 -26 -33 -18 -4 6 5 21 21 34 38 30 44 23 12 -16z"/>
 <path d="M479 877 c5 -13 7 -44 4 -69 -3 -28 -1 -48 6 -52 6 -4 11 -34 11 -67 0 -32 4 -59 9 -59 4 0 6 23 3 50 -4 42 -2 50 12 50 9 0 22 -11 28 -25 9 -21 8 -28 -7 -45 -10 -11 -13 -20 -7 -20 14 0 32 32 32 58 0 26 56 36 70 13 5 -9 10 -11 10 -4 0 23 -52 72 -95 89 -44 16 -45 18 -45 60 0 37 -3 44 -20 44 -16 0 -18 -4 -11 -23z"/>
 <path d="M245 845 l-40 -25 48 0 c60 0 60 -13 0 -69 -27 -24 -41 -38 -32 -32 12 8 24 8 43 1 44 -16 75 -12 101 15 49 48 15 135 -52 135 -15 0 -46 -12 -68 -25z"/>
 <path d="M819 759 c-5 -39 -7 -37 52 -99 40 -43 40 -43 6 -3 -35 41 -43 58 -50 113 -2 20 -4 18 -8 -11z"/>
 <path d="M1961 710 l-1 -35 -19 28 c-10 16 -21 25 -25 19 -3 -5 4 -18 16 -28 11 -11 29 -32 40 -49 l19 -30 -7 40 c-4 22 -11 51 -15 65 -7 23 -7 22 -8 -10z"/>
 <path d="M1201 703 c-1 -16 -7 -23 -21 -23 -11 0 -20 -7 -20 -15 0 -8 9 -15 21 -15 11 0 18 4 15 9 -4 5 -1 11 5 13 6 2 9 15 6 28 -4 23 -4 24 -6 3z"/>
 <path d="M650 671 c0 -8 -11 -29 -26 -48 -33 -43 -26 -42 13 1 20 23 27 39 22 48 -7 11 -9 10 -9 -1z"/>
 <path d="M1160 626 c0 -2 13 -6 29 -8 17 -2 28 -1 25 4 -5 8 -54 12 -54 4z"/>
 <path d="M1994 590 c7 -54 40 -200 46 -200 5 0 11 10 79 133 23 42 40 77 37 77 -3 0 -26 -38 -51 -85 -26 -47 -50 -87 -55 -90 -4 -3 -19 39 -34 93 -14 53 -24 86 -22 72z"/>
 <path d="M390 556 c0 -8 -8 -17 -17 -19 -14 -4 -12 -5 5 -6 16 -1 22 5 22 19 0 11 -2 20 -5 20 -3 0 -5 -6 -5 -14z"/>
 <path d="M1826 519 c-3 -8 -7 -34 -8 -58 -4 -56 -35 -82 -104 -86 -45 -3 -50 -7 -45 -33 2 -15 79 -13 120 4 53 21 75 61 68 122 -5 47 -23 76 -31 51z"/>
 </g>
<g id="layer111" fill="#c1d86b" stroke="none">
 <path d="M1310 1612 c-101 -13 -227 -96 -374 -246 l-89 -90 30 -25 c150 -131 227 -192 236 -188 7 3 36 59 65 125 29 66 68 137 86 158 30 35 35 37 51 24 16 -13 18 -13 13 0 -2 8 -14 16 -26 18 -16 2 -30 -10 -57 -47 -28 -39 -46 -54 -78 -63 -28 -8 -60 -31 -98 -68 l-55 -57 -64 53 c-35 29 -67 57 -71 61 -13 13 111 144 205 217 110 86 157 109 233 114 53 4 69 1 106 -22 26 -15 57 -45 75 -73 32 -51 72 -161 72 -200 0 -12 5 -23 10 -23 11 0 7 27 -17 105 -50 161 -141 242 -253 227z"/>
 <path d="M1830 1066 c-21 -64 -22 -65 -63 -71 -23 -4 -64 -5 -91 -3 l-49 3 -20 53 c-11 28 -24 52 -29 52 -6 0 -41 -16 -79 -36 -67 -35 -68 -36 -56 -63 65 -137 83 -176 116 -241 l38 -75 7 -197 c5 -184 5 -198 -12 -197 -9 0 -82 15 -162 33 -130 30 -145 35 -152 57 -6 22 -7 21 -5 -5 2 -28 5 -30 87 -47 47 -9 119 -27 160 -38 41 -12 81 -21 89 -21 12 0 13 29 7 190 -4 105 -4 190 -1 190 3 0 31 -54 62 -120 31 -66 60 -117 64 -113 16 16 269 588 265 599 -2 5 -38 33 -79 62 l-75 52 -22 -64z m102 -6 l67 -50 -40 -87 c-22 -49 -43 -91 -47 -95 -4 -4 -7 13 -8 38 -1 47 -24 88 -60 108 -10 6 -21 12 -23 13 -6 4 31 123 38 123 3 -1 36 -23 73 -50z m-332 -27 c10 -34 20 -49 40 -56 l26 -10 -22 -22 c-30 -30 -48 -94 -40 -139 13 -67 94 -136 159 -136 13 0 41 11 61 25 20 13 36 21 36 17 0 -13 -115 -272 -121 -272 -4 0 -273 542 -287 579 -3 8 105 60 124 61 6 0 17 -21 24 -47z m152 -189 c7 -6 -23 -104 -32 -104 -3 0 -12 17 -19 38 -8 20 -16 42 -18 49 -6 15 56 31 69 17z"/>
 <path d="M2015 1065 c-26 -13 -26 -14 -5 -9 14 3 32 8 42 10 14 4 17 -6 22 -58 11 -112 13 -124 15 -72 0 28 -2 72 -5 98 -7 51 -18 55 -69 31z"/>
 <path d="M2305 978 c-27 -154 -26 -153 -69 -52 -21 49 -41 92 -45 97 -4 4 -22 -29 -41 -74 -18 -44 -39 -87 -47 -95 -8 -8 -13 -22 -11 -32 3 -13 9 -8 23 18 l19 35 6 -35 c19 -108 124 -179 224 -152 33 10 36 9 36 -11 0 -12 -13 -71 -28 -131 -21 -82 -30 -105 -38 -95 -6 8 -37 62 -68 122 -31 59 -61 107 -65 107 -4 0 -15 -17 -24 -37 -14 -30 -14 -34 -2 -19 8 11 15 23 15 28 0 29 28 -8 87 -118 53 -99 69 -122 75 -108 7 18 132 537 140 579 2 16 -9 24 -72 47 -41 15 -80 27 -86 27 -5 1 -19 -45 -29 -101z m175 23 c0 -10 -5 -32 -11 -49 l-11 -31 -29 34 c-17 19 -46 39 -64 45 -29 10 -35 16 -35 40 l0 29 75 -26 c55 -18 75 -29 75 -42z m-279 -22 c9 -18 7 -25 -21 -50 -36 -33 -44 -36 -31 -11 5 9 15 32 21 50 15 38 16 38 31 11z"/>
 <path d="M1143 945 c-18 -8 -33 -17 -33 -20 0 -3 5 -3 11 1 7 4 30 13 53 20 23 7 32 13 21 13 -11 0 -35 -6 -52 -14z"/>
 <path d="M353 908 c16 -13 37 -34 48 -48 12 -14 17 -18 13 -10 -11 24 -47 61 -69 72 -11 5 -8 0 8 -14z"/>
 <path d="M791 903 c-7 -14 -10 -28 -7 -30 2 -2 7 5 11 16 7 24 17 26 47 10 11 -6 22 -9 24 -7 2 3 -11 12 -30 20 -33 16 -34 16 -45 -9z"/>
 <path d="M949 914 c-46 -14 -119 -80 -119 -107 0 -6 6 -3 12 8 15 27 50 65 60 65 4 0 8 -6 8 -12 0 -7 7 -26 15 -42 8 -15 12 -33 8 -39 -4 -7 0 -8 11 -4 10 4 24 7 32 7 8 0 14 7 14 16 0 9 9 31 19 48 22 35 22 70 0 73 -8 1 -35 -5 -60 -13z"/>
 <path d="M568 894 c-37 -26 -37 -27 -22 -53 22 -35 112 -104 125 -95 6 4 15 0 20 -7 7 -9 7 -5 3 14 -5 20 -2 27 9 27 10 0 13 8 9 26 -3 16 1 30 9 35 9 6 0 9 -29 9 -39 0 -44 3 -59 35 -9 19 -19 35 -22 35 -4 0 -23 -12 -43 -26z m19 -24 c-17 -20 -28 -26 -33 -18 -4 6 5 21 21 34 38 30 44 23 12 -16z"/>
 <path d="M1309 903 c0 -10 -2 -38 -4 -63 -13 -196 -18 -254 -25 -315 -12 -92 -12 -118 0 -110 6 3 10 30 10 60 0 56 19 257 25 263 2 2 12 -2 23 -9 27 -17 65 -4 99 33 15 17 38 41 49 54 l21 22 -88 41 c-98 46 -109 48 -110 24z"/>
 <path d="M479 877 c5 -13 7 -44 4 -69 -3 -28 -1 -48 6 -52 6 -4 11 -34 11 -67 0 -32 4 -59 9 -59 4 0 6 23 3 50 -4 42 -2 50 12 50 9 0 22 -11 28 -25 9 -21 8 -28 -7 -45 -10 -11 -13 -20 -7 -20 14 0 32 32 32 58 0 26 56 36 70 13 5 -9 10 -11 10 -4 0 23 -52 72 -95 89 -44 16 -45 18 -45 60 0 37 -3 44 -20 44 -16 0 -18 -4 -11 -23z"/>
 <path d="M1040 856 c0 -19 -6 -37 -12 -39 -10 -4 -10 -6 0 -6 8 -1 12 -20 13 -58 1 -32 4 -48 6 -35 6 31 19 35 97 24 36 -5 66 -5 66 0 0 4 -16 8 -35 8 -29 0 -35 4 -35 21 0 18 5 20 40 18 21 -2 42 0 46 4 4 4 -5 7 -20 7 -23 0 -26 3 -20 25 3 14 1 32 -5 39 -10 12 -8 15 11 19 13 2 -16 5 -64 6 l-88 1 0 -34z"/>
 <path d="M245 845 l-40 -25 48 0 c60 0 60 -13 0 -69 -27 -24 -41 -38 -32 -32 12 8 24 8 43 1 44 -16 75 -12 101 15 49 48 15 135 -52 135 -15 0 -46 -12 -68 -25z"/>
 <path d="M819 759 c-5 -39 -7 -37 52 -99 40 -43 40 -43 6 -3 -35 41 -43 58 -50 113 -2 20 -4 18 -8 -11z"/>
 <path d="M1961 720 c-1 -29 20 -110 25 -95 2 6 -3 35 -10 65 -8 32 -14 45 -15 30z"/>
 <path d="M1200 701 c0 -12 -8 -21 -22 -24 -20 -4 -19 -4 5 -6 23 -1 27 3 27 24 0 14 -2 25 -5 25 -3 0 -5 -9 -5 -19z"/>
 <path d="M650 671 c0 -8 -11 -29 -26 -48 -33 -43 -26 -42 13 1 20 23 27 39 22 48 -7 11 -9 10 -9 -1z"/>
 <path d="M1052 636 l-2 -49 -47 7 c-33 4 -43 3 -33 -4 8 -5 25 -10 38 -10 13 0 22 -6 22 -15 0 -8 7 -15 16 -15 13 0 14 3 5 14 -9 10 -9 15 -1 18 7 2 10 23 7 53 l-3 50 -2 -49z"/>
 <path d="M1160 626 c0 -2 13 -6 29 -8 17 -2 28 -1 25 4 -5 8 -54 12 -54 4z"/>
 <path d="M1994 590 c7 -54 40 -200 46 -200 5 0 11 10 79 133 23 42 40 77 37 77 -3 0 -26 -38 -51 -85 -26 -47 -50 -87 -55 -90 -4 -3 -19 39 -34 93 -14 53 -24 86 -22 72z"/>
 <path d="M390 556 c0 -8 -8 -17 -17 -19 -14 -4 -12 -5 5 -6 16 -1 22 5 22 19 0 11 -2 20 -5 20 -3 0 -5 -6 -5 -14z"/>
 <path d="M1075 555 c24 -8 116 -12 103 -4 -7 5 -35 8 -63 8 -27 0 -45 -2 -40 -4z"/>
 <path d="M1829 478 c-1 -7 0 -23 0 -34 1 -13 -10 -32 -29 -48 -17 -14 -27 -26 -21 -26 22 0 61 55 61 87 0 31 -9 47 -11 21z"/>
 <path d="M1950 125 c0 -9 5 -15 11 -13 6 2 11 8 11 13 0 5 -5 11 -11 13 -6 2 -11 -4 -11 -13z"/>
 </g>
<g id="layer112" fill="#bac9bc" stroke="none">
 <path d="M1310 1612 c-58 -7 -124 -36 -182 -79 -90 -66 -180 -146 -232 -208 l-46 -53 122 -102 c67 -57 128 -103 135 -104 9 -1 35 45 70 121 30 67 69 139 88 160 29 34 34 36 50 23 16 -13 18 -13 13 0 -2 8 -16 15 -29 15 -31 0 -91 -87 -145 -213 -21 -50 -41 -92 -44 -92 -3 0 -58 43 -123 96 l-117 96 39 47 c76 90 216 208 302 252 27 15 67 25 106 27 53 4 69 1 106 -22 26 -15 57 -45 75 -73 32 -51 72 -161 72 -200 0 -12 5 -23 10 -23 11 0 7 27 -17 105 -50 161 -141 242 -253 227z"/>
 <path d="M1830 1066 c-21 -64 -22 -65 -63 -71 -23 -4 -64 -5 -91 -3 l-49 3 -20 53 c-11 28 -24 52 -29 52 -6 0 -41 -16 -78 -36 l-68 -35 82 -172 83 -172 6 -197 c6 -168 5 -198 -7 -198 -8 0 -74 14 -146 30 -73 17 -137 29 -142 28 -5 -2 55 -18 134 -36 79 -19 152 -36 162 -39 19 -5 19 1 12 186 -4 105 -4 191 -1 191 3 0 31 -54 62 -120 31 -66 60 -117 64 -113 16 16 269 588 265 599 -2 5 -38 33 -79 62 l-75 52 -22 -64z m102 -6 l67 -50 -45 -97 c-56 -119 -194 -431 -201 -455 -3 -10 -9 -18 -12 -18 -6 0 -272 536 -289 579 -3 8 107 61 125 61 5 0 16 -21 24 -47 l15 -48 99 0 99 0 20 63 c11 34 22 62 25 62 3 -1 36 -23 73 -50z"/>
 <path d="M1667 854 c-6 -7 44 -154 53 -154 3 0 18 36 32 80 l26 80 -52 0 c-29 0 -55 -3 -59 -6z m85 -10 c7 -6 -23 -104 -32 -104 -3 0 -12 17 -19 38 -8 20 -16 42 -18 49 -6 15 56 31 69 17z"/>
 <path d="M2015 1065 c-26 -13 -26 -14 -5 -9 14 3 32 8 42 10 14 4 17 -6 22 -58 11 -112 13 -124 15 -72 0 28 -2 72 -5 98 -7 51 -18 55 -69 31z"/>
 <path d="M2305 978 c-27 -154 -26 -153 -69 -52 -21 49 -41 92 -45 96 -4 5 -24 -33 -45 -82 -21 -50 -42 -90 -47 -90 -5 0 -9 -9 -9 -21 0 -36 17 -11 56 81 20 50 40 87 45 83 4 -4 24 -47 44 -95 21 -48 41 -86 45 -83 5 3 18 61 31 129 l22 124 74 -25 c87 -30 84 -5 31 -218 -19 -77 -48 -195 -63 -262 -16 -67 -32 -120 -36 -117 -4 2 -35 56 -69 119 -33 63 -64 115 -69 115 -4 0 -15 -17 -24 -37 -14 -30 -14 -34 -2 -19 8 11 15 23 15 28 0 29 28 -8 87 -118 53 -99 69 -122 75 -108 7 18 132 537 140 579 2 16 -9 24 -72 47 -41 15 -80 27 -86 27 -5 1 -19 -45 -29 -101z"/>
 <path d="M353 908 c16 -13 37 -34 48 -48 12 -14 17 -18 13 -10 -11 24 -47 61 -69 72 -11 5 -8 0 8 -14z"/>
 <path d="M949 914 c-45 -14 -119 -79 -119 -106 0 -6 10 4 23 23 28 41 96 81 142 82 18 0 32 5 29 9 -7 11 -20 9 -75 -8z"/>
 <path d="M568 894 l-37 -27 16 -28 c10 -16 21 -29 25 -29 5 0 1 12 -9 26 -17 26 -17 27 12 50 l30 24 20 -35 c18 -32 23 -35 65 -33 l45 1 -43 4 c-37 4 -45 9 -59 39 -9 19 -19 34 -22 34 -4 0 -23 -12 -43 -26z"/>
 <path d="M797 913 c-4 -3 -7 -11 -7 -17 0 -6 4 -5 9 3 8 12 14 13 36 3 36 -16 46 -14 15 3 -28 16 -43 18 -53 8z"/>
 <path d="M1311 905 c-4 -27 -7 -77 -14 -220 l-6 -120 15 130 c8 72 13 153 11 180 -2 28 -5 41 -6 30z"/>
 <path d="M483 893 c13 -3 17 -15 17 -48 0 -41 2 -44 38 -56 51 -17 80 -37 97 -68 8 -14 14 -21 15 -14 0 23 -52 72 -95 89 -44 16 -45 18 -45 60 0 39 -2 44 -22 43 -17 -1 -19 -2 -5 -6z"/>
 <path d="M1040 855 c0 -21 -5 -35 -12 -35 -10 0 -10 -2 -1 -8 6 -4 13 -32 16 -62 2 -38 4 -27 5 37 l2 92 83 4 82 3 -87 2 -88 2 0 -35z"/>
 <path d="M253 823 c27 -2 47 -9 47 -16 0 -7 -21 -32 -47 -56 l-48 -43 53 42 c67 54 66 75 -3 76 l-50 1 48 -4z"/>
 <path d="M944 795 c-24 -18 -7 -19 26 0 16 9 19 14 9 15 -8 0 -24 -7 -35 -15z"/>
 <path d="M1130 780 c0 -11 0 -23 0 -27 -1 -5 17 -11 40 -14 22 -3 40 -2 40 3 0 4 -16 8 -35 8 -29 0 -35 4 -35 21 0 18 5 20 40 18 21 -2 42 0 46 4 4 4 -16 7 -44 7 -45 0 -52 -3 -52 -20z"/>
 <path d="M683 782 c-8 -5 -8 -13 3 -32 l14 -25 -6 27 c-4 20 -1 27 13 31 12 3 13 5 3 6 -8 0 -20 -3 -27 -7z"/>
 <path d="M819 759 c-5 -39 -7 -37 52 -99 40 -43 40 -43 6 -3 -35 41 -43 58 -50 113 -2 20 -4 18 -8 -11z"/>
 <path d="M500 690 c0 -33 4 -60 9 -60 4 0 6 23 3 50 -3 39 -1 50 10 50 36 0 49 -42 21 -72 -9 -10 -11 -18 -5 -18 17 0 34 39 28 64 -4 18 -42 46 -61 46 -3 0 -5 -27 -5 -60z"/>
 <path d="M1962 725 c0 -11 4 -31 8 -45 6 -20 8 -21 8 -5 0 11 -4 31 -8 45 -6 20 -8 21 -8 5z"/>
 <path d="M1200 701 c0 -12 -8 -21 -22 -24 -20 -4 -19 -4 5 -6 23 -1 27 3 27 24 0 14 -2 25 -5 25 -3 0 -5 -9 -5 -19z"/>
 <path d="M650 671 c0 -8 -11 -29 -26 -48 -33 -43 -26 -42 13 1 20 23 27 39 22 48 -7 11 -9 10 -9 -1z"/>
 <path d="M1050 636 c0 -41 -2 -45 -27 -49 -26 -4 -26 -4 5 -6 l32 -1 0 50 c0 28 -2 50 -5 50 -3 0 -5 -20 -5 -44z"/>
 <path d="M1160 626 c0 -2 13 -6 29 -8 17 -2 28 -1 25 4 -5 8 -54 12 -54 4z"/>
 <path d="M1991 603 c-1 -12 35 -176 45 -202 5 -17 13 -5 83 122 23 42 40 77 37 77 -3 0 -26 -38 -51 -85 -26 -47 -50 -87 -55 -90 -4 -3 -19 39 -33 93 -14 53 -26 92 -26 85z"/>
 <path d="M390 556 c0 -8 -8 -17 -17 -19 -14 -4 -12 -5 5 -6 16 -1 22 5 22 19 0 11 -2 20 -5 20 -3 0 -5 -6 -5 -14z"/>
 <path d="M1093 553 c15 -2 39 -2 55 0 15 2 2 4 -28 4 -30 0 -43 -2 -27 -4z"/>
 <path d="M1283 480 c0 -36 2 -50 4 -32 2 17 2 47 0 65 -2 17 -4 3 -4 -33z"/>
 <path d="M1270 375 c0 -14 4 -25 9 -25 4 0 6 11 3 25 -2 14 -6 25 -8 25 -2 0 -4 -11 -4 -25z"/>
 </g>

</svg>