<?xml version="1.0" encoding="UTF-8" standalone="no"?>
<svg
   xmlns:dc="http://purl.org/dc/elements/1.1/"
   xmlns:cc="http://creativecommons.org/ns#"
   xmlns:rdf="http://www.w3.org/1999/02/22-rdf-syntax-ns#"
   xmlns:svg="http://www.w3.org/2000/svg"
   xmlns="http://www.w3.org/2000/svg"
   xmlns:sodipodi="http://sodipodi.sourceforge.net/DTD/sodipodi-0.dtd"
   xmlns:inkscape="http://www.inkscape.org/namespaces/inkscape"
   viewBox="0 0 366.46121 366.46121"
   height="366.46121"
   width="366.46121"
   xml:space="preserve"
   version="1.1"
   id="svg2"
   inkscape:version="0.48.5 r10040"
   sodipodi:docname="Opera_2015_logo.svg"><metadata
     id="metadata30"><rdf:RDF><cc:Work
         rdf:about=""><dc:format>image/svg+xml</dc:format><dc:type
           rdf:resource="http://purl.org/dc/dcmitype/StillImage" /><dc:title></dc:title></cc:Work></rdf:RDF></metadata><sodipodi:namedview
     pagecolor="#ffffff"
     bordercolor="#666666"
     borderopacity="1"
     objecttolerance="10"
     gridtolerance="10"
     guidetolerance="10"
     inkscape:pageopacity="0"
     inkscape:pageshadow="2"
     inkscape:window-width="1057"
     inkscape:window-height="1027"
     id="namedview28"
     showgrid="false"
     fit-margin-left="0.5"
     fit-margin-bottom="0.5"
     fit-margin-top="0.5"
     fit-margin-right="0.5"
     inkscape:zoom="1.7364936"
     inkscape:cx="846.99328"
     inkscape:cy="73.008637"
     inkscape:window-x="856"
     inkscape:window-y="-12"
     inkscape:window-maximized="0"
     inkscape:current-layer="svg2" /><defs
     id="defs4"><linearGradient
       id="gradiant1"
       spreadMethod="pad"
       gradientTransform="matrix(0,354.17584,-354.17584,0,152.73846,6.46202)"
       gradientUnits="userSpaceOnUse"
       y2="0"
       x2="1"
       y1="0"
       x1="0"><stop
         offset="0"
         style="stop-color:#ff1b2d;stop-opacity:1"
         id="stop7" /><stop
         offset="0.3"
         style="stop-color:#ff1b2d;stop-opacity:1"
         id="stop9" /><stop
         offset="0.61"
         style="stop-color:#ff1b2d;stop-opacity:1"
         id="stop11" /><stop
         offset="1"
         style="stop-color:#a70014;stop-opacity:1"
         id="stop13" /></linearGradient><linearGradient
       id="gradiant2"
       spreadMethod="pad"
       gradientTransform="matrix(0,313.2512,-313.2512,0,244.49844,27.33729)"
       gradientUnits="userSpaceOnUse"
       y2="0"
       x2="1"
       y1="0"
       x1="0"><stop
         offset="0"
         style="stop-color:#9c0000;stop-opacity:1"
         id="stop16" /><stop
         offset="0.7"
         style="stop-color:#ff4b4b;stop-opacity:1"
         id="stop18" /><stop
         offset="1"
         style="stop-color:#ff4b4b;stop-opacity:1"
         id="stop20" /></linearGradient></defs><path
     d="M 183.19423,0.5 C 82.283307,0.5 0.5,82.31967 0.5,183.2306 l 0,0 c 0,98.00179 77.165041,177.96688 174.03953,182.51241 l 0,0 c 2.90915,0.14546 5.78192,0.21819 8.69107,0.21819 l 0,0 c 46.80085,0 89.45617,-17.60032 121.78403,-46.50994 l 0,0 c -21.41857,14.21844 -46.47357,22.36405 -73.23769,22.36405 l 0,0 c -43.52807,0 -82.47423,-21.6004 -108.69289,-55.63738 l 0,0 C 102.8655,262.35931 89.774352,227.08594 88.901609,187.52159 l 0,0 c 0,-0.10909 0,-8.50925 0,-8.61834 l 0,0 C 89.774352,139.37526 102.8655,104.10189 123.04768,80.24691 l 0,0 C 149.26634,46.20993 188.24887,24.6459 231.77694,24.6459 l 0,0 c 26.76412,0 51.81912,8.18196 73.23769,22.4004 l 0,0 C 272.83223,18.24578 230.43146,0.68182 183.88516,0.5 l 0,0 c -0.21819,0 -0.47274,0 -0.69093,0 z"
     id="path22"
     style="fill:url(#gradiant1)"
     inkscape:connector-curvature="0" /><path
     d="m 123.04768,80.24691 c 16.80031,-19.78218 38.43707,-31.70967 62.11023,-31.70967 l 0,0 c 53.20096,0 96.32902,60.32837 96.32902,134.69336 l 0,0 c 0,74.40136 -43.12806,134.69336 -96.32902,134.69336 l 0,0 c -23.67316,0 -45.30992,-11.92749 -62.07386,-31.70967 l 0,0 c 26.21866,34.03699 65.16482,55.63738 108.69289,55.63738 l 0,0 c 26.76412,0 51.81912,-8.18197 73.23769,-22.36404 l 0,0 c 37.3825,-33.49152 60.9102,-82.11059 60.9102,-136.25703 l 0,0 c 0,-54.11007 -23.5277,-102.76551 -60.94656,-136.22066 l 0,0 C 283.5597,32.7915 258.54106,24.6459 231.77694,24.6459 l 0,0 c -43.52807,0 -82.47423,21.60039 -108.69289,55.63737"
     id="path24"
     style="fill:url(#gradiant2)"
     inkscape:connector-curvature="0" /></svg>