<svg width="893" height="893" fill="none" xmlns="http://www.w3.org/2000/svg"><ellipse cx="405.923" cy="450.332" rx="291.264" ry="265.549" transform="rotate(166.913 405.923 450.332)" fill="url(#paint0_radial)"/><g opacity=".6" stroke="#161A2B" stroke-width=".5"><path d="M.25.25h29.267v29.267H.25zM30.02.251h29.267v29.267H30.02zM59.785.251h29.267v29.267H59.785zM89.551.251h29.267v29.267H89.551zM119.316.251h29.267v29.267h-29.267zM149.082.251h29.267v29.267h-29.267zM178.852.251h29.267v29.267h-29.267zM208.617.251h29.267v29.267h-29.267zM238.383.251h29.267v29.267h-29.267zM268.145.251h29.267v29.267h-29.267zM297.918.251h29.267v29.267h-29.267zM327.684.251h29.267v29.267h-29.267zM357.449.251h29.267v29.267h-29.267zM387.219.251h29.267v29.267h-29.267zM416.98.251h29.267v29.267H416.98zM446.75.251h29.267v29.267H446.75zM476.516.251h29.267v29.267h-29.267zM506.277.251h29.267v29.267h-29.267zM536.051.251h29.267v29.267h-29.267zM565.816.251h29.267v29.267h-29.267zM595.582.251h29.267v29.267h-29.267zM625.352.251h29.267v29.267h-29.267zM655.117.251h29.267v29.267h-29.267zM684.883.251h29.267v29.267h-29.267zM714.645.251h29.267v29.267h-29.267zM744.418.251h29.267v29.267h-29.267zM774.184.251h29.267v29.267h-29.267zM803.945.251h29.267v29.267h-29.267zM833.719.251h29.267v29.267h-29.267zM863.48.251h29.267v29.267H863.48zM.25 30.018h29.267v29.267H.25zM30.02 30.018h29.267v29.267H30.02zM59.785 30.018h29.267v29.267H59.785zM89.551 30.018h29.267v29.267H89.551zM119.316 30.018h29.267v29.267h-29.267zM149.082 30.018h29.267v29.267h-29.267zM178.852 30.018h29.267v29.267h-29.267zM208.617 30.018h29.267v29.267h-29.267zM238.383 30.018h29.267v29.267h-29.267zM268.145 30.018h29.267v29.267h-29.267zM297.918 30.018h29.267v29.267h-29.267zM327.684 30.018h29.267v29.267h-29.267zM357.449 30.018h29.267v29.267h-29.267zM387.219 30.018h29.267v29.267h-29.267zM416.98 30.018h29.267v29.267H416.98zM446.75 30.018h29.267v29.267H446.75zM476.516 30.018h29.267v29.267h-29.267zM506.277 30.018h29.267v29.267h-29.267zM536.051 30.018h29.267v29.267h-29.267zM565.816 30.018h29.267v29.267h-29.267zM595.582 30.018h29.267v29.267h-29.267zM625.352 30.018h29.267v29.267h-29.267zM655.117 30.018h29.267v29.267h-29.267zM684.883 30.018h29.267v29.267h-29.267zM714.645 30.018h29.267v29.267h-29.267zM744.418 30.018h29.267v29.267h-29.267zM774.184 30.018h29.267v29.267h-29.267zM803.945 30.018h29.267v29.267h-29.267zM833.719 30.018h29.267v29.267h-29.267zM863.48 30.018h29.267v29.267H863.48zM.25 59.784h29.267v29.267H.25zM30.02 59.784h29.267v29.267H30.02zM59.785 59.784h29.267v29.267H59.785zM89.551 59.784h29.267v29.267H89.551zM119.316 59.784h29.267v29.267h-29.267zM149.082 59.784h29.267v29.267h-29.267zM178.852 59.784h29.267v29.267h-29.267zM208.617 59.784h29.267v29.267h-29.267zM238.383 59.784h29.267v29.267h-29.267zM268.145 59.784h29.267v29.267h-29.267zM297.918 59.784h29.267v29.267h-29.267zM327.684 59.784h29.267v29.267h-29.267zM357.449 59.784h29.267v29.267h-29.267zM387.219 59.784h29.267v29.267h-29.267zM416.98 59.784h29.267v29.267H416.98zM446.75 59.784h29.267v29.267H446.75zM476.516 59.784h29.267v29.267h-29.267zM506.277 59.784h29.267v29.267h-29.267zM536.051 59.784h29.267v29.267h-29.267zM565.816 59.784h29.267v29.267h-29.267zM595.582 59.784h29.267v29.267h-29.267zM625.352 59.784h29.267v29.267h-29.267zM655.117 59.784h29.267v29.267h-29.267zM684.883 59.784h29.267v29.267h-29.267zM714.645 59.784h29.267v29.267h-29.267zM744.418 59.784h29.267v29.267h-29.267zM774.184 59.784h29.267v29.267h-29.267zM803.945 59.784h29.267v29.267h-29.267zM833.719 59.784h29.267v29.267h-29.267zM863.48 59.784h29.267v29.267H863.48zM.25 89.551h29.267v29.267H.25zM30.02 89.551h29.267v29.267H30.02zM59.785 89.551h29.267v29.267H59.785zM89.551 89.551h29.267v29.267H89.551zM119.316 89.551h29.267v29.267h-29.267zM149.082 89.551h29.267v29.267h-29.267zM178.852 89.551h29.267v29.267h-29.267zM208.617 89.551h29.267v29.267h-29.267zM238.383 89.551h29.267v29.267h-29.267zM268.145 89.551h29.267v29.267h-29.267zM297.918 89.551h29.267v29.267h-29.267zM327.684 89.551h29.267v29.267h-29.267zM357.449 89.551h29.267v29.267h-29.267zM387.219 89.551h29.267v29.267h-29.267zM416.98 89.551h29.267v29.267H416.98zM446.75 89.551h29.267v29.267H446.75zM476.516 89.551h29.267v29.267h-29.267zM506.277 89.551h29.267v29.267h-29.267zM536.051 89.551h29.267v29.267h-29.267zM565.816 89.551h29.267v29.267h-29.267zM595.582 89.551h29.267v29.267h-29.267zM625.352 89.551h29.267v29.267h-29.267zM655.117 89.551h29.267v29.267h-29.267zM684.883 89.551h29.267v29.267h-29.267zM714.645 89.551h29.267v29.267h-29.267zM744.418 89.551h29.267v29.267h-29.267zM774.184 89.551h29.267v29.267h-29.267zM803.945 89.551h29.267v29.267h-29.267zM833.719 89.551h29.267v29.267h-29.267zM863.48 89.551h29.267v29.267H863.48zM.25 119.318h29.267v29.267H.25zM30.02 119.318h29.267v29.267H30.02zM59.785 119.318h29.267v29.267H59.785zM89.551 119.318h29.267v29.267H89.551zM119.316 119.318h29.267v29.267h-29.267zM149.082 119.318h29.267v29.267h-29.267zM178.852 119.318h29.267v29.267h-29.267zM208.617 119.318h29.267v29.267h-29.267zM238.383 119.318h29.267v29.267h-29.267zM268.145 119.318h29.267v29.267h-29.267zM297.918 119.318h29.267v29.267h-29.267zM327.684 119.318h29.267v29.267h-29.267zM357.449 119.318h29.267v29.267h-29.267zM387.219 119.318h29.267v29.267h-29.267zM416.98 119.318h29.267v29.267H416.98zM446.75 119.318h29.267v29.267H446.75zM476.516 119.318h29.267v29.267h-29.267zM506.277 119.318h29.267v29.267h-29.267zM536.051 119.318h29.267v29.267h-29.267zM565.816 119.318h29.267v29.267h-29.267zM595.582 119.318h29.267v29.267h-29.267zM625.352 119.318h29.267v29.267h-29.267zM655.117 119.318h29.267v29.267h-29.267zM684.883 119.318h29.267v29.267h-29.267zM714.645 119.318h29.267v29.267h-29.267zM744.418 119.318h29.267v29.267h-29.267zM774.184 119.318h29.267v29.267h-29.267zM803.945 119.318h29.267v29.267h-29.267zM833.719 119.318h29.267v29.267h-29.267zM863.48 119.318h29.267v29.267H863.48zM.25 149.084h29.267v29.267H.25zM30.02 149.084h29.267v29.267H30.02zM59.785 149.084h29.267v29.267H59.785zM89.551 149.084h29.267v29.267H89.551zM119.316 149.084h29.267v29.267h-29.267zM149.082 149.084h29.267v29.267h-29.267zM178.852 149.084h29.267v29.267h-29.267zM208.617 149.084h29.267v29.267h-29.267zM238.383 149.084h29.267v29.267h-29.267zM268.145 149.084h29.267v29.267h-29.267zM297.918 149.084h29.267v29.267h-29.267zM327.684 149.084h29.267v29.267h-29.267zM357.449 149.084h29.267v29.267h-29.267zM387.219 149.084h29.267v29.267h-29.267zM416.98 149.084h29.267v29.267H416.98zM446.75 149.084h29.267v29.267H446.75zM476.516 149.084h29.267v29.267h-29.267zM506.277 149.084h29.267v29.267h-29.267zM536.051 149.084h29.267v29.267h-29.267zM565.816 149.084h29.267v29.267h-29.267zM595.582 149.084h29.267v29.267h-29.267zM625.352 149.084h29.267v29.267h-29.267zM655.117 149.084h29.267v29.267h-29.267zM684.883 149.084h29.267v29.267h-29.267zM714.645 149.084h29.267v29.267h-29.267zM744.418 149.084h29.267v29.267h-29.267zM774.184 149.084h29.267v29.267h-29.267zM803.945 149.084h29.267v29.267h-29.267zM833.719 149.084h29.267v29.267h-29.267zM863.48 149.084h29.267v29.267H863.48zM.25 178.851h29.267v29.267H.25zM30.02 178.851h29.267v29.267H30.02zM59.785 178.851h29.267v29.267H59.785zM89.551 178.851h29.267v29.267H89.551zM119.316 178.851h29.267v29.267h-29.267zM149.082 178.851h29.267v29.267h-29.267zM178.852 178.851h29.267v29.267h-29.267zM208.617 178.851h29.267v29.267h-29.267zM238.383 178.851h29.267v29.267h-29.267zM268.145 178.851h29.267v29.267h-29.267zM297.918 178.851h29.267v29.267h-29.267zM327.684 178.851h29.267v29.267h-29.267zM357.449 178.851h29.267v29.267h-29.267zM387.219 178.851h29.267v29.267h-29.267zM416.98 178.851h29.267v29.267H416.98zM446.75 178.851h29.267v29.267H446.75zM476.516 178.851h29.267v29.267h-29.267zM506.277 178.851h29.267v29.267h-29.267zM536.051 178.851h29.267v29.267h-29.267zM565.816 178.851h29.267v29.267h-29.267zM595.582 178.851h29.267v29.267h-29.267zM625.352 178.851h29.267v29.267h-29.267zM655.117 178.851h29.267v29.267h-29.267zM684.883 178.851h29.267v29.267h-29.267zM714.645 178.851h29.267v29.267h-29.267zM744.418 178.851h29.267v29.267h-29.267zM774.184 178.851h29.267v29.267h-29.267zM803.945 178.851h29.267v29.267h-29.267zM833.719 178.851h29.267v29.267h-29.267zM863.48 178.851h29.267v29.267H863.48zM.25 208.617h29.267v29.267H.25zM30.02 208.617h29.267v29.267H30.02zM59.785 208.617h29.267v29.267H59.785zM89.551 208.617h29.267v29.267H89.551zM119.316 208.617h29.267v29.267h-29.267zM149.082 208.617h29.267v29.267h-29.267zM178.852 208.617h29.267v29.267h-29.267zM208.617 208.617h29.267v29.267h-29.267zM238.383 208.617h29.267v29.267h-29.267zM268.145 208.617h29.267v29.267h-29.267zM297.918 208.617h29.267v29.267h-29.267zM327.684 208.617h29.267v29.267h-29.267zM357.449 208.617h29.267v29.267h-29.267zM387.219 208.617h29.267v29.267h-29.267zM416.98 208.617h29.267v29.267H416.98zM446.75 208.617h29.267v29.267H446.75zM476.516 208.617h29.267v29.267h-29.267zM506.277 208.617h29.267v29.267h-29.267zM536.051 208.617h29.267v29.267h-29.267zM565.816 208.617h29.267v29.267h-29.267zM595.582 208.617h29.267v29.267h-29.267zM625.352 208.617h29.267v29.267h-29.267zM655.117 208.617h29.267v29.267h-29.267zM684.883 208.617h29.267v29.267h-29.267zM714.645 208.617h29.267v29.267h-29.267zM744.418 208.617h29.267v29.267h-29.267zM774.184 208.617h29.267v29.267h-29.267zM803.945 208.617h29.267v29.267h-29.267zM833.719 208.617h29.267v29.267h-29.267zM863.48 208.617h29.267v29.267H863.48zM.25 238.384h29.267v29.267H.25zM30.02 238.384h29.267v29.267H30.02zM59.785 238.384h29.267v29.267H59.785zM89.551 238.384h29.267v29.267H89.551zM119.316 238.384h29.267v29.267h-29.267zM149.082 238.384h29.267v29.267h-29.267zM178.852 238.384h29.267v29.267h-29.267zM208.617 238.384h29.267v29.267h-29.267zM238.383 238.384h29.267v29.267h-29.267zM268.145 238.384h29.267v29.267h-29.267zM297.918 238.384h29.267v29.267h-29.267zM327.684 238.384h29.267v29.267h-29.267zM357.449 238.384h29.267v29.267h-29.267zM387.219 238.384h29.267v29.267h-29.267zM416.98 238.384h29.267v29.267H416.98zM446.75 238.384h29.267v29.267H446.75zM476.516 238.384h29.267v29.267h-29.267zM506.277 238.384h29.267v29.267h-29.267zM536.051 238.384h29.267v29.267h-29.267zM565.816 238.384h29.267v29.267h-29.267zM595.582 238.384h29.267v29.267h-29.267zM625.352 238.384h29.267v29.267h-29.267zM655.117 238.384h29.267v29.267h-29.267zM684.883 238.384h29.267v29.267h-29.267zM714.645 238.384h29.267v29.267h-29.267zM744.418 238.384h29.267v29.267h-29.267zM774.184 238.384h29.267v29.267h-29.267zM803.945 238.384h29.267v29.267h-29.267zM833.719 238.384h29.267v29.267h-29.267zM863.48 238.384h29.267v29.267H863.48zM.25 268.151h29.267v29.267H.25zM30.02 268.151h29.267v29.267H30.02zM59.785 268.151h29.267v29.267H59.785zM89.551 268.151h29.267v29.267H89.551zM119.316 268.151h29.267v29.267h-29.267zM149.082 268.151h29.267v29.267h-29.267zM178.852 268.151h29.267v29.267h-29.267zM208.617 268.151h29.267v29.267h-29.267zM238.383 268.151h29.267v29.267h-29.267zM268.145 268.151h29.267v29.267h-29.267zM297.918 268.151h29.267v29.267h-29.267zM327.684 268.151h29.267v29.267h-29.267zM357.449 268.151h29.267v29.267h-29.267zM387.219 268.151h29.267v29.267h-29.267zM416.98 268.151h29.267v29.267H416.98zM446.75 268.151h29.267v29.267H446.75zM476.516 268.151h29.267v29.267h-29.267zM506.277 268.151h29.267v29.267h-29.267zM536.051 268.151h29.267v29.267h-29.267zM565.816 268.151h29.267v29.267h-29.267zM595.582 268.151h29.267v29.267h-29.267zM625.352 268.151h29.267v29.267h-29.267zM655.117 268.151h29.267v29.267h-29.267zM684.883 268.151h29.267v29.267h-29.267zM714.645 268.151h29.267v29.267h-29.267zM744.418 268.151h29.267v29.267h-29.267zM774.184 268.151h29.267v29.267h-29.267zM803.945 268.151h29.267v29.267h-29.267zM833.719 268.151h29.267v29.267h-29.267zM863.48 268.151h29.267v29.267H863.48zM.25 297.919h29.267v29.267H.25zM30.02 297.919h29.267v29.267H30.02zM59.785 297.919h29.267v29.267H59.785zM89.551 297.919h29.267v29.267H89.551zM119.316 297.919h29.267v29.267h-29.267zM149.082 297.919h29.267v29.267h-29.267zM178.852 297.919h29.267v29.267h-29.267zM208.617 297.919h29.267v29.267h-29.267zM238.383 297.919h29.267v29.267h-29.267zM268.145 297.919h29.267v29.267h-29.267zM297.918 297.919h29.267v29.267h-29.267zM327.684 297.919h29.267v29.267h-29.267zM357.449 297.919h29.267v29.267h-29.267zM387.219 297.919h29.267v29.267h-29.267zM416.98 297.919h29.267v29.267H416.98zM446.75 297.919h29.267v29.267H446.75zM476.516 297.919h29.267v29.267h-29.267zM506.277 297.919h29.267v29.267h-29.267zM536.051 297.919h29.267v29.267h-29.267zM565.816 297.919h29.267v29.267h-29.267zM595.582 297.919h29.267v29.267h-29.267zM625.352 297.919h29.267v29.267h-29.267zM655.117 297.919h29.267v29.267h-29.267zM684.883 297.919h29.267v29.267h-29.267zM714.645 297.919h29.267v29.267h-29.267zM744.418 297.919h29.267v29.267h-29.267zM774.184 297.919h29.267v29.267h-29.267zM803.945 297.919h29.267v29.267h-29.267zM833.719 297.919h29.267v29.267h-29.267zM863.48 297.919h29.267v29.267H863.48zM.25 327.685h29.267v29.267H.25zM30.02 327.685h29.267v29.267H30.02zM59.785 327.685h29.267v29.267H59.785zM89.551 327.685h29.267v29.267H89.551zM119.316 327.685h29.267v29.267h-29.267zM149.082 327.685h29.267v29.267h-29.267zM178.852 327.685h29.267v29.267h-29.267zM208.617 327.685h29.267v29.267h-29.267zM238.383 327.685h29.267v29.267h-29.267zM268.145 327.685h29.267v29.267h-29.267zM297.918 327.685h29.267v29.267h-29.267zM327.684 327.685h29.267v29.267h-29.267zM357.449 327.685h29.267v29.267h-29.267zM387.219 327.685h29.267v29.267h-29.267zM416.98 327.685h29.267v29.267H416.98zM446.75 327.685h29.267v29.267H446.75zM476.516 327.685h29.267v29.267h-29.267zM506.277 327.685h29.267v29.267h-29.267zM536.051 327.685h29.267v29.267h-29.267zM565.816 327.685h29.267v29.267h-29.267zM595.582 327.685h29.267v29.267h-29.267zM625.352 327.685h29.267v29.267h-29.267zM655.117 327.685h29.267v29.267h-29.267zM684.883 327.685h29.267v29.267h-29.267zM714.645 327.685h29.267v29.267h-29.267zM744.418 327.685h29.267v29.267h-29.267zM774.184 327.685h29.267v29.267h-29.267zM803.945 327.685h29.267v29.267h-29.267zM833.719 327.685h29.267v29.267h-29.267zM863.48 327.685h29.267v29.267H863.48zM.25 357.451h29.267v29.267H.25zM30.02 357.451h29.267v29.267H30.02zM59.785 357.451h29.267v29.267H59.785zM89.551 357.451h29.267v29.267H89.551zM119.316 357.451h29.267v29.267h-29.267zM149.082 357.451h29.267v29.267h-29.267zM178.852 357.451h29.267v29.267h-29.267zM208.617 357.451h29.267v29.267h-29.267zM238.383 357.451h29.267v29.267h-29.267zM268.145 357.451h29.267v29.267h-29.267zM297.918 357.451h29.267v29.267h-29.267zM327.684 357.451h29.267v29.267h-29.267zM357.449 357.451h29.267v29.267h-29.267zM387.219 357.451h29.267v29.267h-29.267zM416.98 357.451h29.267v29.267H416.98zM446.75 357.451h29.267v29.267H446.75zM476.516 357.451h29.267v29.267h-29.267zM506.277 357.451h29.267v29.267h-29.267zM536.051 357.451h29.267v29.267h-29.267zM565.816 357.451h29.267v29.267h-29.267zM595.582 357.451h29.267v29.267h-29.267zM625.352 357.451h29.267v29.267h-29.267zM655.117 357.451h29.267v29.267h-29.267zM684.883 357.451h29.267v29.267h-29.267zM714.645 357.451h29.267v29.267h-29.267zM744.418 357.451h29.267v29.267h-29.267zM774.184 357.451h29.267v29.267h-29.267zM803.945 357.451h29.267v29.267h-29.267zM833.719 357.451h29.267v29.267h-29.267zM863.48 357.451h29.267v29.267H863.48zM.25 387.217h29.267v29.267H.25zM30.02 387.217h29.267v29.267H30.02zM59.785 387.217h29.267v29.267H59.785zM89.551 387.217h29.267v29.267H89.551zM119.316 387.217h29.267v29.267h-29.267zM149.082 387.217h29.267v29.267h-29.267zM178.852 387.217h29.267v29.267h-29.267zM208.617 387.217h29.267v29.267h-29.267zM238.383 387.217h29.267v29.267h-29.267zM268.145 387.217h29.267v29.267h-29.267zM297.918 387.217h29.267v29.267h-29.267zM327.684 387.217h29.267v29.267h-29.267zM357.449 387.217h29.267v29.267h-29.267zM387.219 387.217h29.267v29.267h-29.267zM416.98 387.217h29.267v29.267H416.98zM446.75 387.217h29.267v29.267H446.75zM476.516 387.217h29.267v29.267h-29.267zM506.277 387.217h29.267v29.267h-29.267zM536.051 387.217h29.267v29.267h-29.267zM565.816 387.217h29.267v29.267h-29.267zM595.582 387.217h29.267v29.267h-29.267zM625.352 387.217h29.267v29.267h-29.267zM655.117 387.217h29.267v29.267h-29.267zM684.883 387.217h29.267v29.267h-29.267zM714.645 387.217h29.267v29.267h-29.267zM744.418 387.217h29.267v29.267h-29.267zM774.184 387.217h29.267v29.267h-29.267zM803.945 387.217h29.267v29.267h-29.267zM833.719 387.217h29.267v29.267h-29.267zM863.48 387.217h29.267v29.267H863.48zM.25 416.985h29.267v29.267H.25zM30.02 416.985h29.267v29.267H30.02zM59.785 416.985h29.267v29.267H59.785zM89.551 416.985h29.267v29.267H89.551zM119.316 416.985h29.267v29.267h-29.267zM149.082 416.985h29.267v29.267h-29.267zM178.852 416.985h29.267v29.267h-29.267zM208.617 416.985h29.267v29.267h-29.267zM238.383 416.985h29.267v29.267h-29.267zM268.145 416.985h29.267v29.267h-29.267zM297.918 416.985h29.267v29.267h-29.267zM327.684 416.985h29.267v29.267h-29.267zM357.449 416.985h29.267v29.267h-29.267zM387.219 416.985h29.267v29.267h-29.267zM416.98 416.985h29.267v29.267H416.98zM446.75 416.985h29.267v29.267H446.75zM476.516 416.985h29.267v29.267h-29.267zM506.277 416.985h29.267v29.267h-29.267zM536.051 416.985h29.267v29.267h-29.267zM565.816 416.985h29.267v29.267h-29.267zM595.582 416.985h29.267v29.267h-29.267zM625.352 416.985h29.267v29.267h-29.267zM655.117 416.985h29.267v29.267h-29.267zM684.883 416.985h29.267v29.267h-29.267zM714.645 416.985h29.267v29.267h-29.267zM744.418 416.985h29.267v29.267h-29.267zM774.184 416.985h29.267v29.267h-29.267zM803.945 416.985h29.267v29.267h-29.267zM833.719 416.985h29.267v29.267h-29.267zM863.48 416.985h29.267v29.267H863.48zM.25 446.75h29.267v29.267H.25zM30.02 446.75h29.267v29.267H30.02zM59.785 446.75h29.267v29.267H59.785zM89.551 446.75h29.267v29.267H89.551zM119.316 446.75h29.267v29.267h-29.267zM149.082 446.75h29.267v29.267h-29.267zM178.852 446.75h29.267v29.267h-29.267zM208.617 446.75h29.267v29.267h-29.267zM238.383 446.75h29.267v29.267h-29.267zM268.145 446.75h29.267v29.267h-29.267zM297.918 446.75h29.267v29.267h-29.267zM327.684 446.75h29.267v29.267h-29.267zM357.449 446.75h29.267v29.267h-29.267zM387.219 446.75h29.267v29.267h-29.267zM416.98 446.75h29.267v29.267H416.98zM446.75 446.75h29.267v29.267H446.75zM476.516 446.75h29.267v29.267h-29.267zM506.277 446.75h29.267v29.267h-29.267zM536.051 446.75h29.267v29.267h-29.267zM565.816 446.75h29.267v29.267h-29.267zM595.582 446.75h29.267v29.267h-29.267zM625.352 446.75h29.267v29.267h-29.267zM655.117 446.75h29.267v29.267h-29.267zM684.883 446.75h29.267v29.267h-29.267zM714.645 446.75h29.267v29.267h-29.267zM744.418 446.75h29.267v29.267h-29.267zM774.184 446.75h29.267v29.267h-29.267zM803.945 446.75h29.267v29.267h-29.267zM833.719 446.75h29.267v29.267h-29.267zM863.48 446.75h29.267v29.267H863.48zM.25 476.517h29.267v29.267H.25zM30.02 476.517h29.267v29.267H30.02zM59.785 476.517h29.267v29.267H59.785zM89.551 476.517h29.267v29.267H89.551zM119.316 476.517h29.267v29.267h-29.267zM149.082 476.517h29.267v29.267h-29.267zM178.852 476.517h29.267v29.267h-29.267zM208.617 476.517h29.267v29.267h-29.267zM238.383 476.517h29.267v29.267h-29.267zM268.145 476.517h29.267v29.267h-29.267zM297.918 476.517h29.267v29.267h-29.267zM327.684 476.517h29.267v29.267h-29.267zM357.449 476.517h29.267v29.267h-29.267zM387.219 476.517h29.267v29.267h-29.267zM416.98 476.517h29.267v29.267H416.98zM446.75 476.517h29.267v29.267H446.75zM476.516 476.517h29.267v29.267h-29.267zM506.277 476.517h29.267v29.267h-29.267zM536.051 476.517h29.267v29.267h-29.267zM565.816 476.517h29.267v29.267h-29.267zM595.582 476.517h29.267v29.267h-29.267zM625.352 476.517h29.267v29.267h-29.267zM655.117 476.517h29.267v29.267h-29.267zM684.883 476.517h29.267v29.267h-29.267zM714.645 476.517h29.267v29.267h-29.267zM744.418 476.517h29.267v29.267h-29.267zM774.184 476.517h29.267v29.267h-29.267zM803.945 476.517h29.267v29.267h-29.267zM833.719 476.517h29.267v29.267h-29.267zM863.48 476.517h29.267v29.267H863.48zM.25 506.284h29.267v29.267H.25zM30.02 506.284h29.267v29.267H30.02zM59.785 506.284h29.267v29.267H59.785zM89.551 506.284h29.267v29.267H89.551zM119.316 506.284h29.267v29.267h-29.267zM149.082 506.284h29.267v29.267h-29.267zM178.852 506.284h29.267v29.267h-29.267zM208.617 506.284h29.267v29.267h-29.267zM238.383 506.284h29.267v29.267h-29.267zM268.145 506.284h29.267v29.267h-29.267zM297.918 506.284h29.267v29.267h-29.267zM327.684 506.284h29.267v29.267h-29.267zM357.449 506.284h29.267v29.267h-29.267zM387.219 506.284h29.267v29.267h-29.267zM416.98 506.284h29.267v29.267H416.98zM446.75 506.284h29.267v29.267H446.75zM476.516 506.284h29.267v29.267h-29.267zM506.277 506.284h29.267v29.267h-29.267zM536.051 506.284h29.267v29.267h-29.267zM565.816 506.284h29.267v29.267h-29.267zM595.582 506.284h29.267v29.267h-29.267zM625.352 506.284h29.267v29.267h-29.267zM655.117 506.284h29.267v29.267h-29.267zM684.883 506.284h29.267v29.267h-29.267zM714.645 506.284h29.267v29.267h-29.267zM744.418 506.284h29.267v29.267h-29.267zM774.184 506.284h29.267v29.267h-29.267zM803.945 506.284h29.267v29.267h-29.267zM833.719 506.284h29.267v29.267h-29.267zM863.48 506.284h29.267v29.267H863.48zM.25 536.051h29.267v29.267H.25zM30.016 536.051h29.267v29.267H30.016zM59.785 536.051h29.267v29.267H59.785zM89.551 536.051h29.267v29.267H89.551zM119.316 536.051h29.267v29.267h-29.267zM149.082 536.051h29.267v29.267h-29.267zM178.852 536.051h29.267v29.267h-29.267zM208.617 536.051h29.267v29.267h-29.267zM238.383 536.051h29.267v29.267h-29.267zM268.145 536.051h29.267v29.267h-29.267zM297.918 536.051h29.267v29.267h-29.267zM327.684 536.051h29.267v29.267h-29.267zM357.449 536.051h29.267v29.267h-29.267zM387.219 536.051h29.267v29.267h-29.267zM416.98 536.051h29.267v29.267H416.98zM446.75 536.051h29.267v29.267H446.75zM476.516 536.051h29.267v29.267h-29.267zM506.277 536.051h29.267v29.267h-29.267zM536.051 536.051h29.267v29.267h-29.267zM565.816 536.051h29.267v29.267h-29.267zM595.582 536.051h29.267v29.267h-29.267zM625.352 536.051h29.267v29.267h-29.267zM655.117 536.051h29.267v29.267h-29.267zM684.883 536.051h29.267v29.267h-29.267zM714.645 536.051h29.267v29.267h-29.267zM744.418 536.051h29.267v29.267h-29.267zM774.184 536.051h29.267v29.267h-29.267zM803.945 536.051h29.267v29.267h-29.267zM833.719 536.051h29.267v29.267h-29.267zM863.48 536.051h29.267v29.267H863.48zM.25 565.817h29.267v29.267H.25zM30.016 565.817h29.267v29.267H30.016zM59.785 565.817h29.267v29.267H59.785zM89.551 565.817h29.267v29.267H89.551zM119.316 565.817h29.267v29.267h-29.267zM149.082 565.817h29.267v29.267h-29.267zM178.852 565.817h29.267v29.267h-29.267zM208.617 565.817h29.267v29.267h-29.267zM238.383 565.817h29.267v29.267h-29.267zM268.145 565.817h29.267v29.267h-29.267zM297.918 565.817h29.267v29.267h-29.267zM327.684 565.817h29.267v29.267h-29.267zM357.449 565.817h29.267v29.267h-29.267zM387.219 565.817h29.267v29.267h-29.267zM416.98 565.817h29.267v29.267H416.98zM446.75 565.817h29.267v29.267H446.75zM476.516 565.817h29.267v29.267h-29.267zM506.277 565.817h29.267v29.267h-29.267zM536.051 565.817h29.267v29.267h-29.267zM565.816 565.817h29.267v29.267h-29.267zM595.582 565.817h29.267v29.267h-29.267zM625.352 565.817h29.267v29.267h-29.267zM655.117 565.817h29.267v29.267h-29.267zM684.883 565.817h29.267v29.267h-29.267zM714.645 565.817h29.267v29.267h-29.267zM744.418 565.817h29.267v29.267h-29.267zM774.184 565.817h29.267v29.267h-29.267zM803.945 565.817h29.267v29.267h-29.267zM833.719 565.817h29.267v29.267h-29.267zM863.48 565.817h29.267v29.267H863.48zM.25 595.584h29.267v29.267H.25zM30.016 595.584h29.267v29.267H30.016zM59.785 595.584h29.267v29.267H59.785zM89.551 595.584h29.267v29.267H89.551zM119.316 595.584h29.267v29.267h-29.267zM149.082 595.584h29.267v29.267h-29.267zM178.852 595.584h29.267v29.267h-29.267zM208.617 595.584h29.267v29.267h-29.267zM238.383 595.584h29.267v29.267h-29.267zM268.145 595.584h29.267v29.267h-29.267zM297.918 595.584h29.267v29.267h-29.267zM327.684 595.584h29.267v29.267h-29.267zM357.449 595.584h29.267v29.267h-29.267zM387.219 595.584h29.267v29.267h-29.267zM416.98 595.584h29.267v29.267H416.98zM446.75 595.584h29.267v29.267H446.75zM476.516 595.584h29.267v29.267h-29.267zM506.277 595.584h29.267v29.267h-29.267zM536.051 595.584h29.267v29.267h-29.267zM565.816 595.584h29.267v29.267h-29.267zM595.582 595.584h29.267v29.267h-29.267zM625.352 595.584h29.267v29.267h-29.267zM655.117 595.584h29.267v29.267h-29.267zM684.883 595.584h29.267v29.267h-29.267zM714.645 595.584h29.267v29.267h-29.267zM744.418 595.584h29.267v29.267h-29.267zM774.184 595.584h29.267v29.267h-29.267zM803.945 595.584h29.267v29.267h-29.267zM833.719 595.584h29.267v29.267h-29.267zM863.48 595.584h29.267v29.267H863.48zM.25 625.351h29.267v29.267H.25zM30.016 625.351h29.267v29.267H30.016zM59.785 625.351h29.267v29.267H59.785zM89.551 625.351h29.267v29.267H89.551zM119.316 625.351h29.267v29.267h-29.267zM149.082 625.351h29.267v29.267h-29.267zM178.852 625.351h29.267v29.267h-29.267zM208.617 625.351h29.267v29.267h-29.267zM238.383 625.351h29.267v29.267h-29.267zM268.145 625.351h29.267v29.267h-29.267zM297.918 625.351h29.267v29.267h-29.267zM327.684 625.351h29.267v29.267h-29.267zM357.449 625.351h29.267v29.267h-29.267zM387.219 625.351h29.267v29.267h-29.267zM416.98 625.351h29.267v29.267H416.98zM446.75 625.351h29.267v29.267H446.75zM476.516 625.351h29.267v29.267h-29.267zM506.277 625.351h29.267v29.267h-29.267zM536.051 625.351h29.267v29.267h-29.267zM565.816 625.351h29.267v29.267h-29.267zM595.582 625.351h29.267v29.267h-29.267zM625.352 625.351h29.267v29.267h-29.267zM655.117 625.351h29.267v29.267h-29.267zM684.883 625.351h29.267v29.267h-29.267zM714.645 625.351h29.267v29.267h-29.267zM744.418 625.351h29.267v29.267h-29.267zM774.184 625.351h29.267v29.267h-29.267zM803.945 625.351h29.267v29.267h-29.267zM833.719 625.351h29.267v29.267h-29.267zM863.48 625.351h29.267v29.267H863.48zM.25 655.117h29.267v29.267H.25zM30.016 655.117h29.267v29.267H30.016zM59.785 655.117h29.267v29.267H59.785zM89.551 655.117h29.267v29.267H89.551zM119.316 655.117h29.267v29.267h-29.267zM149.082 655.117h29.267v29.267h-29.267zM178.852 655.117h29.267v29.267h-29.267zM208.617 655.117h29.267v29.267h-29.267zM238.383 655.117h29.267v29.267h-29.267zM268.145 655.117h29.267v29.267h-29.267zM297.918 655.117h29.267v29.267h-29.267zM327.684 655.117h29.267v29.267h-29.267zM357.449 655.117h29.267v29.267h-29.267zM387.219 655.117h29.267v29.267h-29.267zM416.98 655.117h29.267v29.267H416.98zM446.75 655.117h29.267v29.267H446.75zM476.516 655.117h29.267v29.267h-29.267zM506.277 655.117h29.267v29.267h-29.267zM536.051 655.117h29.267v29.267h-29.267zM565.816 655.117h29.267v29.267h-29.267zM595.582 655.117h29.267v29.267h-29.267zM625.352 655.117h29.267v29.267h-29.267zM655.117 655.117h29.267v29.267h-29.267zM684.883 655.117h29.267v29.267h-29.267zM714.645 655.117h29.267v29.267h-29.267zM744.418 655.117h29.267v29.267h-29.267zM774.184 655.117h29.267v29.267h-29.267zM803.945 655.117h29.267v29.267h-29.267zM833.719 655.117h29.267v29.267h-29.267zM863.48 655.117h29.267v29.267H863.48zM.25 684.884h29.267v29.267H.25zM30.016 684.884h29.267v29.267H30.016zM59.785 684.884h29.267v29.267H59.785zM89.551 684.884h29.267v29.267H89.551zM119.316 684.884h29.267v29.267h-29.267zM149.082 684.884h29.267v29.267h-29.267zM178.852 684.884h29.267v29.267h-29.267zM208.617 684.884h29.267v29.267h-29.267zM238.383 684.884h29.267v29.267h-29.267zM268.145 684.884h29.267v29.267h-29.267zM297.918 684.884h29.267v29.267h-29.267zM327.684 684.884h29.267v29.267h-29.267zM357.449 684.884h29.267v29.267h-29.267zM387.219 684.884h29.267v29.267h-29.267zM416.98 684.884h29.267v29.267H416.98zM446.75 684.884h29.267v29.267H446.75zM476.516 684.884h29.267v29.267h-29.267zM506.277 684.884h29.267v29.267h-29.267zM536.051 684.884h29.267v29.267h-29.267zM565.816 684.884h29.267v29.267h-29.267zM595.582 684.884h29.267v29.267h-29.267zM625.352 684.884h29.267v29.267h-29.267zM655.117 684.884h29.267v29.267h-29.267zM684.883 684.884h29.267v29.267h-29.267zM714.645 684.884h29.267v29.267h-29.267zM744.418 684.884h29.267v29.267h-29.267zM774.184 684.884h29.267v29.267h-29.267zM803.945 684.884h29.267v29.267h-29.267zM833.719 684.884h29.267v29.267h-29.267zM863.48 684.884h29.267v29.267H863.48zM.25 714.65h29.267v29.267H.25zM30.016 714.65h29.267v29.267H30.016zM59.785 714.65h29.267v29.267H59.785zM89.551 714.65h29.267v29.267H89.551zM119.316 714.65h29.267v29.267h-29.267zM149.082 714.65h29.267v29.267h-29.267zM178.852 714.65h29.267v29.267h-29.267zM208.617 714.65h29.267v29.267h-29.267zM238.383 714.65h29.267v29.267h-29.267zM268.145 714.65h29.267v29.267h-29.267zM297.918 714.65h29.267v29.267h-29.267zM327.684 714.65h29.267v29.267h-29.267zM357.449 714.65h29.267v29.267h-29.267zM387.219 714.65h29.267v29.267h-29.267zM416.98 714.65h29.267v29.267H416.98zM446.75 714.65h29.267v29.267H446.75zM476.516 714.65h29.267v29.267h-29.267zM506.277 714.65h29.267v29.267h-29.267zM536.051 714.65h29.267v29.267h-29.267zM565.816 714.65h29.267v29.267h-29.267zM595.582 714.65h29.267v29.267h-29.267zM625.352 714.65h29.267v29.267h-29.267zM655.117 714.65h29.267v29.267h-29.267zM684.883 714.65h29.267v29.267h-29.267zM714.645 714.65h29.267v29.267h-29.267zM744.418 714.65h29.267v29.267h-29.267zM774.184 714.65h29.267v29.267h-29.267zM803.945 714.65h29.267v29.267h-29.267zM833.719 714.65h29.267v29.267h-29.267zM863.48 714.65h29.267v29.267H863.48zM.25 744.417h29.267v29.267H.25zM30.016 744.417h29.267v29.267H30.016zM59.785 744.417h29.267v29.267H59.785zM89.551 744.417h29.267v29.267H89.551zM119.316 744.417h29.267v29.267h-29.267zM149.082 744.417h29.267v29.267h-29.267zM178.852 744.417h29.267v29.267h-29.267zM208.617 744.417h29.267v29.267h-29.267zM238.383 744.417h29.267v29.267h-29.267zM268.145 744.417h29.267v29.267h-29.267zM297.918 744.417h29.267v29.267h-29.267zM327.684 744.417h29.267v29.267h-29.267zM357.449 744.417h29.267v29.267h-29.267zM387.219 744.417h29.267v29.267h-29.267zM416.98 744.417h29.267v29.267H416.98zM446.75 744.417h29.267v29.267H446.75zM476.516 744.417h29.267v29.267h-29.267zM506.277 744.417h29.267v29.267h-29.267zM536.051 744.417h29.267v29.267h-29.267zM565.816 744.417h29.267v29.267h-29.267zM595.582 744.417h29.267v29.267h-29.267zM625.352 744.417h29.267v29.267h-29.267zM655.117 744.417h29.267v29.267h-29.267zM684.883 744.417h29.267v29.267h-29.267zM714.645 744.417h29.267v29.267h-29.267zM744.418 744.417h29.267v29.267h-29.267zM774.184 744.417h29.267v29.267h-29.267zM803.945 744.417h29.267v29.267h-29.267zM833.719 744.417h29.267v29.267h-29.267zM863.48 744.417h29.267v29.267H863.48zM.25 774.184h29.267v29.267H.25zM30.016 774.184h29.267v29.267H30.016zM59.785 774.184h29.267v29.267H59.785zM89.551 774.184h29.267v29.267H89.551zM119.316 774.184h29.267v29.267h-29.267zM149.082 774.184h29.267v29.267h-29.267zM178.852 774.184h29.267v29.267h-29.267zM208.617 774.184h29.267v29.267h-29.267zM238.383 774.184h29.267v29.267h-29.267zM268.145 774.184h29.267v29.267h-29.267zM297.918 774.184h29.267v29.267h-29.267zM327.684 774.184h29.267v29.267h-29.267zM357.449 774.184h29.267v29.267h-29.267zM387.219 774.184h29.267v29.267h-29.267zM416.98 774.184h29.267v29.267H416.98zM446.75 774.184h29.267v29.267H446.75zM476.516 774.184h29.267v29.267h-29.267zM506.277 774.184h29.267v29.267h-29.267zM536.051 774.184h29.267v29.267h-29.267zM565.816 774.184h29.267v29.267h-29.267zM595.582 774.184h29.267v29.267h-29.267zM625.352 774.184h29.267v29.267h-29.267zM655.117 774.184h29.267v29.267h-29.267zM684.883 774.184h29.267v29.267h-29.267zM714.645 774.184h29.267v29.267h-29.267zM744.418 774.184h29.267v29.267h-29.267zM774.184 774.184h29.267v29.267h-29.267zM803.945 774.184h29.267v29.267h-29.267zM833.719 774.184h29.267v29.267h-29.267zM863.48 774.184h29.267v29.267H863.48zM.25 803.951h29.267v29.267H.25zM30.016 803.951h29.267v29.267H30.016zM59.785 803.951h29.267v29.267H59.785zM89.551 803.951h29.267v29.267H89.551zM119.316 803.951h29.267v29.267h-29.267zM149.082 803.951h29.267v29.267h-29.267zM178.852 803.951h29.267v29.267h-29.267zM208.617 803.951h29.267v29.267h-29.267zM238.383 803.951h29.267v29.267h-29.267zM268.145 803.951h29.267v29.267h-29.267zM297.918 803.951h29.267v29.267h-29.267zM327.684 803.951h29.267v29.267h-29.267zM357.449 803.951h29.267v29.267h-29.267zM387.219 803.951h29.267v29.267h-29.267zM416.98 803.951h29.267v29.267H416.98zM446.75 803.951h29.267v29.267H446.75zM476.516 803.951h29.267v29.267h-29.267zM506.277 803.951h29.267v29.267h-29.267zM536.051 803.951h29.267v29.267h-29.267zM565.816 803.951h29.267v29.267h-29.267zM595.582 803.951h29.267v29.267h-29.267zM625.352 803.951h29.267v29.267h-29.267zM655.117 803.951h29.267v29.267h-29.267zM684.883 803.951h29.267v29.267h-29.267zM714.645 803.951h29.267v29.267h-29.267zM744.418 803.951h29.267v29.267h-29.267zM774.184 803.951h29.267v29.267h-29.267zM803.945 803.951h29.267v29.267h-29.267zM833.719 803.951h29.267v29.267h-29.267zM863.48 803.951h29.267v29.267H863.48zM.25 833.717h29.267v29.267H.25zM30.016 833.717h29.267v29.267H30.016zM59.785 833.717h29.267v29.267H59.785zM89.551 833.717h29.267v29.267H89.551zM119.316 833.717h29.267v29.267h-29.267zM149.082 833.717h29.267v29.267h-29.267zM178.852 833.717h29.267v29.267h-29.267zM208.617 833.717h29.267v29.267h-29.267zM238.383 833.717h29.267v29.267h-29.267zM268.145 833.717h29.267v29.267h-29.267zM297.918 833.717h29.267v29.267h-29.267zM327.684 833.717h29.267v29.267h-29.267zM357.449 833.717h29.267v29.267h-29.267zM387.219 833.717h29.267v29.267h-29.267zM416.98 833.717h29.267v29.267H416.98zM446.75 833.717h29.267v29.267H446.75zM476.516 833.717h29.267v29.267h-29.267zM506.277 833.717h29.267v29.267h-29.267zM536.051 833.717h29.267v29.267h-29.267zM565.816 833.717h29.267v29.267h-29.267zM595.582 833.717h29.267v29.267h-29.267zM625.352 833.717h29.267v29.267h-29.267zM655.117 833.717h29.267v29.267h-29.267zM684.883 833.717h29.267v29.267h-29.267zM714.645 833.717h29.267v29.267h-29.267zM744.418 833.717h29.267v29.267h-29.267zM774.184 833.717h29.267v29.267h-29.267zM803.945 833.717h29.267v29.267h-29.267zM833.719 833.717h29.267v29.267h-29.267zM863.48 833.717h29.267v29.267H863.48zM.25 863.484h29.267v29.267H.25zM30.016 863.484h29.267v29.267H30.016zM59.785 863.484h29.267v29.267H59.785zM89.551 863.484h29.267v29.267H89.551zM119.316 863.484h29.267v29.267h-29.267zM149.082 863.484h29.267v29.267h-29.267zM178.852 863.484h29.267v29.267h-29.267zM208.617 863.484h29.267v29.267h-29.267zM238.383 863.484h29.267v29.267h-29.267zM268.145 863.484h29.267v29.267h-29.267zM297.918 863.484h29.267v29.267h-29.267zM327.684 863.484h29.267v29.267h-29.267zM357.449 863.484h29.267v29.267h-29.267zM387.219 863.484h29.267v29.267h-29.267zM416.98 863.484h29.267v29.267H416.98zM446.75 863.484h29.267v29.267H446.75zM476.516 863.484h29.267v29.267h-29.267zM506.277 863.484h29.267v29.267h-29.267zM536.051 863.484h29.267v29.267h-29.267zM565.816 863.484h29.267v29.267h-29.267zM595.582 863.484h29.267v29.267h-29.267zM625.352 863.484h29.267v29.267h-29.267zM655.117 863.484h29.267v29.267h-29.267zM684.883 863.484h29.267v29.267h-29.267zM714.645 863.484h29.267v29.267h-29.267zM744.418 863.484h29.267v29.267h-29.267zM774.184 863.484h29.267v29.267h-29.267zM803.945 863.484h29.267v29.267h-29.267zM833.719 863.484h29.267v29.267h-29.267zM863.48 863.484h29.267v29.267H863.48z"/></g><g filter="url(#filter0_d)"><ellipse cx="403.943" cy="446.643" rx="288.494" ry="149.137" transform="rotate(-15 403.943 446.643)" stroke="url(#paint1_linear)" shape-rendering="optimizeQuality"/></g><defs><radialGradient id="paint0_radial" cx="0" cy="0" r="1" gradientUnits="userSpaceOnUse" gradientTransform="matrix(0 265.55 -291.264 0 405.923 450.332)"><stop stop-color="#07F" stop-opacity=".7"/><stop offset=".399" stop-color="#2F54FF" stop-opacity=".219"/><stop offset=".832" stop-color="#44F" stop-opacity="0"/></radialGradient><linearGradient id="paint1_linear" x1="115.449" y1="297.506" x2="115.449" y2="595.78" gradientUnits="userSpaceOnUse"><stop stop-color="#04A2DD"/><stop offset="1" stop-color="#44F"/></linearGradient><filter id="filter0_d" x="114.082" y="275.853" width="579.72" height="341.581" filterUnits="userSpaceOnUse" color-interpolation-filters="sRGB"><feFlood flood-opacity="0" result="BackgroundImageFix"/><feColorMatrix in="SourceAlpha" values="0 0 0 0 0 0 0 0 0 0 0 0 0 0 0 0 0 0 127 0" result="hardAlpha"/><feOffset/><feGaussianBlur stdDeviation="4"/><feComposite in2="hardAlpha" operator="out"/><feColorMatrix values="0 0 0 0 0.266667 0 0 0 0 0.266667 0 0 0 0 1 0 0 0 0.5 0"/><feBlend in2="BackgroundImageFix" result="effect1_dropShadow"/><feBlend in="SourceGraphic" in2="effect1_dropShadow" result="shape"/></filter></defs></svg>