<?xml version="1.0" encoding="utf-8"?> <!-- Generator: IcoMoon.io --> <!DOCTYPE svg PUBLIC "-//W3C//DTD SVG 1.1//EN" "http://www.w3.org/Graphics/SVG/1.1/DTD/svg11.dtd"> <svg width="32" height="32" viewBox="0 0 32 32" xmlns="http://www.w3.org/2000/svg" xmlns:xlink="http://www.w3.org/1999/xlink" fill="#ff9132"><g><path d="M 4.259,23.467c-2.35,0-4.259,1.917-4.259,4.252c0,2.349, 1.909,4.244, 4.259,4.244 c 2.358,0, 4.265-1.895, 4.265-4.244C 8.525,25.383, 6.618,23.467, 4.259,23.467zM 0.005,10.873l0,6.133 c 3.993,0, 7.749,1.562, 10.577,4.391c 2.825,2.822, 4.384,6.595, 4.384,10.603l 6.16,0 C 21.125,20.349, 11.648,10.873, 0.005,10.873zM 0.012,0l0,6.136 c 14.243,0, 25.836,11.604, 25.836,25.864L 32,32 C 32,14.36, 17.648,0, 0.012,0z"></path></g></svg>