<?xml version="1.0" encoding="utf-8"?>
<!-- Generator: Adobe Illustrator 16.0.0, SVG Export Plug-In . SVG Version: 6.00 Build 0)  -->
<!DOCTYPE svg PUBLIC "-//W3C//DTD SVG 1.1//EN" "http://www.w3.org/Graphics/SVG/1.1/DTD/svg11.dtd">
<svg version="1.1" id="Layer_1" xmlns="http://www.w3.org/2000/svg" xmlns:xlink="http://www.w3.org/1999/xlink" x="0px" y="0px"
	 width="32px" height="32px" viewBox="408.25 131.412 120 120" enable-background="new 408.25 131.412 120 120"
	 xml:space="preserve">
<g id="mark">
</g>
<g id="fg_1_">
</g>
<g id="mark_1_">
</g>
<g id="fg">
</g>
<g>
	<linearGradient id="SVGID_1_" gradientUnits="userSpaceOnUse" x1="468.25" y1="251.4121" x2="468.25" y2="131.4121">
		<stop  offset="0" style="stop-color:#007708"/>
		<stop  offset="1" style="stop-color:#00A21A"/>
	</linearGradient>
	<path fill="url(#SVGID_1_)" d="M418.427,131.412h99.649c5.615,0,10.174,4.494,10.174,10.033v99.938
		c0,5.535-4.559,10.029-10.174,10.029h-99.649c-5.624,0-10.177-4.494-10.177-10.029v-99.938
		C408.25,135.906,412.803,131.412,418.427,131.412z"/>
	<path fill="none" d="M479.654,131.412h-51.386c5.448,53.374,34.05,96.915,52.547,120h18.592
		C482.866,234.396,468.252,190.327,479.654,131.412z"/>
	<path fill="none" d="M408.25,241.383c0,5.535,4.553,10.029,10.177,10.029h15.72c-10.672-17.291-19.177-37.477-25.896-58.193
		V241.383z"/>
	<linearGradient id="SVGID_2_" gradientUnits="userSpaceOnUse" x1="444.5332" y1="233.04" x2="444.5332" y2="175.5242">
		<stop  offset="0" style="stop-color:#04B719"/>
		<stop  offset="0.2967" style="stop-color:#03B219"/>
		<stop  offset="1" style="stop-color:#01A91A"/>
	</linearGradient>
	<path opacity="0.77" fill="url(#SVGID_2_)" enable-background="new    " d="M418.427,131.412c-5.624,0-10.177,4.494-10.177,10.033
		v40.488c0,33.039,5.662,50.958,17.091,69.479h55.475c-18.497-23.085-40.521-70.128-51.614-120H418.427z"/>
	<linearGradient id="SVGID_3_" gradientUnits="userSpaceOnUse" x1="503.1426" y1="233.04" x2="503.1426" y2="175.5242">
		<stop  offset="0" style="stop-color:#04B719"/>
		<stop  offset="0.2967" style="stop-color:#03B219"/>
		<stop  offset="1" style="stop-color:#01A91A"/>
	</linearGradient>
	<path opacity="0.77" fill="url(#SVGID_3_)" enable-background="new    " d="M518.076,131.412h-39.862
		c-1.238,58.915,3.853,93.315,18.652,120h21.21c5.615,0,10.174-4.494,10.174-10.029v-99.938
		C528.25,135.906,523.691,131.412,518.076,131.412z"/>
</g>
</svg>
