<svg xmlns="http://www.w3.org/2000/svg" version="1.2" width="69" height="32" viewBox="-34366 -16378 10000 4639.1"><path d="M-34189.3-16343.3l38 2 94.5 5 123 6.3 25.4 1.2 20.5 1 42 2.2 9 .4 11 .5 21 1 71 3.4 14 .6 8 .4h4l69 3 21 1 29 1 9 .3 36 1.5 4 .3 88 3.3 63 4 22 1 21 1 62 4h1l41 1 22 1 46 3 23 1 60 2 58 2h2l96 3 128 4h2l308 6v6l83 3 56 2 326 9 90 3 39 1 232 7 82 2 491 9 521 8h86l304 1 214-1v-1l217 1h385l126-1 306-1 420-6 195-1 160-2h47l2 5 5 9 2 2 5 10 6 11 3 6 4 6 5 10 2 5 2 3 5 12 3 4 5 5 1 1 4 4 1 1 4 2 6 4 1 1 5 3h1l8 1h2l4 1h5l7 1 5 1 5 1 5 3 5 2 5 2 4 2 7 5 5 3 4 4 3 4 2 2 6 8 10 8 7 3 6 3 11 4 11 4 16 5v1l33 12 3 1 18 5 3 1 8 2 2 1 4 1 6 2 3 1 10 6 9 6 2 2 13 9 3 1 4 2 7 3h1l7.7 3 9 3 7 2h1l5 1h19.3l4-1 3 1-2-4 22 29.7 16 9.8 21 21 30 21 12 21 24 9 24 2 23.4-5 2-1 21-5 16-6 13-6 8.7-5.5 7-7 10-9 5.5-6 22-32 4-9 6-10 4-14 .8-9 3-5v-5l-1-5v-6l5-4 16-8 19-5 10-1h3l9 7 9 9 22 25 5 3 7 1.5 9 1 8-1.4 8-3 7-6 6-7 10-11.2 7.2-10 5-1h6l9 2 5.8 3 10 7 4 4 1 5.6 3 7 4 7 7.4 7 5 2h10l5-2 7-4 4.4-5 7-12 3-4 11-17 5-4 6-4 11-2 7 1 2 1 1 4 1 5-.6 8 1 5.6 3 4 3 2 4.3 1h5l8-1 23-4 23-4 4-3 8.7-8 7.6-8 3.3-3 31-10 7-2h3.7l2 1 2 3v9l1 6 1.7 2h9l4 1 4 3 4 5.2 4 2 7 1 7-1 11-8 4.5-6 7-7.3 7.5-5 6-3h7l7 1 15.4-1h1l6-3 3-5 1-3 2-1 13-2 10 1 12 4 9 2 11-1 1.7.4 6 4 5 1h5l13 12 24 4 20-5 33 13 2 5 1 23 9 28 11 5 31 2.5 15 4 8 2h1l6 2.7 1 1 3 3 2 4 2 4 1 12 1.4 5v3l3 2 4.6 1 4 1 6 1 5 2 6 2 3 1 4 1 9 2h2.6l14 2 11 1h7l7-1 6-1 7-1 11-.6h4l2 1h6l7 1 3 1h5l3-1 2-.5h5l5-2 4 .7 6 1h3l10 5 5 5 1 1 4 6 3 4.6 1 5 1 3v4l-.5 3-2 5-1 1-1 8-.4 5v1l6 5 3 2 10 .4 5-2 3-3 7-9 2.6-2 3-2 4-2 6-3h5l16 1h3l4 1 10 2.8 7 2 3 1 5 1.4 8 2.4 8 2 6 4.3 4 2 13 10 8 5h1l6 .8 6 1 5 3 5 5 4.6 7v2l1 7v7l.6 3v2l1 7 1 5 5 4 1 1 5 4 5.5 4 7 2 7 2h2l6 1 6 .2 1-1 20-4 3-1h2l6.5-1h14.6l4 1h9l4 1.6 5 2 5 1 7 2 1 1 2 3 8 12v1l-8 15-2 4-3 3-3.6 4-.5 1-3 5-3.2 5-2 4-.6 1-2 12.4-1 5 4 6 8.6 11 2 1 11 9 4 4 2 1 9 5 5 4 3 3 6 4 4 3 5 4 8 6.5 9 9 2 1 2 2 4 3 4 4 2 2 3 5 1 1 2 5 3 5 1 1 1 6v6l.4 3v3l-1 6-1 5-1 2v7.4l7 6 1 1 7 4 5 3 4-1h2l3-1 6-2 4-3 2-1.6 8-7 1-1 6-3.4 6-4 1-1 3-1 4-1 4-1 4-1 2-.3 10 1 3 1 5 2 5 4 5 5 6 9 1 2.7 3 4.7 5 7.4 4 6 3 3 3 3 5 5.7 4 2 4 2h11l2-1 7-2.5 4-2 1-1 5-3 8-3 7-2 2 .4 17-3 15-2 13 2 9 3 9 5 6 7 4 9 3 12 .6 17.4-1 12-1 10-4 8-5 6-5.5 7-2 2.3-17 21v25l10 27-9 17-2 16 12 21 29 17 11 11v2l3 4 2 11.5 4 24.6 12 18.5 4.3 4 16.8 9 9 13 4 16v12l7.5 11-15 23-23 4v1l-1 4 1 4 1 4 3 6 4 9 1 4-.5 3.8v2l1 4-.7 3 .3 6v3l1 5 1 5 .4 1 1 5 8 11 16 9 9 9 3.8 9 3 7 8 9 21 5 11 6 1.5 3 8 7 3 17-2 17-8 18-1 18 2 14 5 12 2 4 1 2 3 5 13.2 6.8 22-5 6 4 2 1 8 5 1 5 3 4-.5 5-1 3-6 9-11 7-3 14 .6 4 6 7 13 2 10-19 10-4h15l5 3.6 2 1 .3 1.5v22.3l3 6 3 4.7 4 2.5 4 3 4 1h5l5-1 5-.5h6l6 2h5l5.4 4 5.5 6 1 5-1 7.4-2 5-3 5-1.6 5v5l-.5 5 2 5 2 8 2 6 2 5v6l-1 6-3 5-4 4-4 4-4 2-4.6 1-3 2-2 3 .4 4v4.4l3.7 5 4 5 6 8 2 5 1 6 .5 6 2.7 6 4 8 4 4 1.3 1.4 6 4 7 4 6 3 5.4 3 3 3 2 5 2 6 .4 5-1 7-1 8 1 7 3 4 2 4 3 3 5 4 5 4 3 2 4 1 5 2h5l4 1.4 3.4 3 5 6.5 2 6v8l-1 8-3.6 8-10 16-7.8 14-5 10-5 8-4 7-2 6.6-.5 6.5 1 7 4 5 6 3 4 2 8 3 6 2 4 3 4 5 2 7 .3 6-1 4-3 3-4 1.7-6 2h-6l-6 1.6h-6l-6-1-4 1-5 3-4 4-1 3-1 4-1 10 1 2 1 6 4 5 5 6 6 7 6.3 6 5 8 3 7 2 7.4-.5 9-2 7-2 6-2.7 6-3.6 4-5 8-3 7-3 7 1 5 2 5 3.6 5 6 6 5.5 3 12 6.3 10 6 4 5 3 7 1 3-2 3.3-2 2-4 2-3 3-4 5.6-4 4-2 5-1 5-1 7v6l3 7 3 6 7 11 5 5 6 4.2 5.3 2h6l4 1 6 2 5 .4 5-.6 9.6-1.6 4-3 3-4.6 3-6 .2-4 .2-7 2-7.7 2-6 6.5-4.2 9-1 5.7 2 7 6 5 6 3 9 4 8 3 7 2 8-1 7-2 6-5 4-5 4-5 3-4 4-3.8 3-2.8 4-2 4-1 4 2 7 2 4 4 3 5 3 7 3 8 1 7 1 5 2 5 2 6 4 4 3 6 3.6h7l5-2 4-2 6-.3h8l5 1 4 1.6 5 3 3 5 4 6 3 6.3-1 7-2 5-3.6 3-4 4-3 5-2 6-1 7 2 5 2 8 2 8v4l-3 5-3 5-1.7 5.3-1 5v5l3 5.4 4.5 7 3 6 4 5v7l-2 6-1.3 3-5 6-5 3.4-5 3-5 5-5 2-2 2-1.4 4.3 1 5 2 6 3 4 6 4 3 3 9 7 9 5 11 2.7 7 1h7l6-1 7 1 6 1.5 1 1 4 3 6 6 3 6 2 6 1 14-2 11-3 6.7-9 6-21.5 12-2 1-2-1.7-1-12 2-7 5-9 .5-6-2-4-5-2h-11l-8 4-3 8 1 13 4 16.6 5 18 1 5 2 4 2 5 4 5 3 6 4 7 1 6 1 9-1 5-4 7-6 11-5 8-2.6 5v14l3 5 5 7h1l5 2 5 2h16l10-1.3 8-.8 4-1h13l7-1 9 3 6 5 4 5 2 3 1.7 6-2 5-3 3-5 2-5 1-4.8-2-5-2-6-1h-.2l-2-1-3 2-4 4-2 5-1 3-1 5v7l1 7 4 8 3 6 3 5 5 7 3 6 1 5 1 6-1 7 1 9 1 8 2 6 2 8 1 6-1 7-2.4 5-4 6.3-4 5-3 4-5 5-2 4.5v4l3.5 9.5 7 7 14 14 4 8v12l-5 10-5.3 16 2 6 4 6 3 2.6v1l4 3 5 3 6 2.3 8 3 7 3 3 3 5 5 2 5 2 7v12l-1.7 7-2.5 5-2 6-2 6.3v14l1 10 2 9 6 13 6 7 6.8 6 6.2 6 5 6 1 5v13l-2 9-4 5.8-3 4-5 3-7 1-6 3-6 2-3 3-2 5-1 5-1 6 1.5 5.5 2 4 4 7 4 7v6l2 12-1 7-3.8 8-1 6.2v5l1.8 7 3 7 1.3 5 4 7.5 3 6 2 5v3l-4 13-6 8-30 18-11.5 14-7 22 3 17 5 11 27.8 13 8 8 13 37 24 14 30 5 24 22 5 11 4 28 21 18 3 8-5 17-13 10-9 11-1 7 14 28.3 1 8-6 18 4 7 7 5 12 3h13l12-3 5.6-2.7 10 1 5 5 2 3 12.6-11 1-42.6 8-6 17-4 12 19 7 4 4.5 12.3-3 21-6 9.3-42 20 4 8 3 7v7l-.7 13v11l3 7 17.4 12 8 5 8.5 9 5 6.4 3 7 3 7 1 6v7l-1 5-5 14 3 11 19 32 5 30 17 19 6 17-3 10-5 5-27 13-4 11 1 7 7 6 7 1 31-14 9-1 13 6 20 14 22 2 11 9 3 7-5 23v6l1 4 3 4 10 4.5 25 12 37-1 15 8.2 7 12 2 9-.7 16-12 25 1 13 4 10 22 23 20.3 7 10 9 3 24 6 9 8 6 8 1 5-1 5 1 6 3 3 3 3 4.3 1 5 .8 7v5l-1.5 5-4 4-6 5-3 3-2.4 5-2 5v6l2 7 1 5v5l-2 5-3 5-4 5-2 5-2 7 2 9.5 2 7.3 4 9 5 8 10 7 9 3 7 1 9-1 11-5 9-3.4 16.2 2 15 14 25 8 6 8 3 10-36 1-114 5.5-13 1-109 4-275 14-244 12-12 .5-260.5 12-258 9h-4l-388 15-128 4-95 3-380.5 11-40 1h-3l-511 14h-4l-124 3.6-73 2-41 1-281 4.8-262 5-223 4-33.4 1-309 6-77 1-129 1h-23l-95 1-392.6 2h-2l-421 1h-228l-561.7-4h-85l-276-3-341.6-6h-26l-54-1-47-1-154-3-89.8-1-178-3-94-2-214.7-5 11-514 3-135 8-384 1-76 9-376-643-19.3-37.4-1-373-11.5h-16l-433-16.7-214-9-538-22 2-32.3 26-552 12-254 9-196v-4l21-443v-7l6-127 37.8-781 23-477 5-101z" fill="#f0db4f" stroke="#000" stroke-linejoin="round" stroke-width=".1"/><text x="-27659.4" y="-14359.1" transform="matrix(1.02028 -.02148 .02237 .97965 0 0)" style="line-height:125%" font-size="1894.4" letter-spacing="0" word-spacing="0" font-family="sans-serif"><tspan x="-27659.4" y="-14359.1" style="line-height:125%;-inkscape-font-specification:Arial Bold" font-size="2008.1" font-weight="bold" font-family="Arial">NE</tspan></text><text x="-28003.8" y="-12478.2" transform="rotate(-1.037)" style="line-height:125%" font-size="408.4" letter-spacing="0" word-spacing="0" font-family="sans-serif"><tspan x="-28003.8" y="-12478.2" style="-inkscape-font-specification:Arial Bold" font-size="2164.6" font-weight="bold" font-family="Arial">JS</tspan></text><text x="-25222.8" y="-13169.7" transform="rotate(-2)" style="line-height:125%" font-size="400" letter-spacing="0" word-spacing="0" font-family="sans-serif"><tspan x="-25222.8" y="-13169.7" style="-inkscape-font-specification:Arial Bold" font-size="1400" font-weight="bold" font-family="Arial">;</tspan></text></svg>