<svg data-name="Layer 1" xmlns="http://www.w3.org/2000/svg" viewBox="0 0 283.5 52.02"><defs><clipPath id="a" transform="translate(0 5.65)"><path fill="none" d="M6.35 11.62h23.12v23.22H6.35z"/></clipPath><linearGradient id="b" x1="23.12" y1="85.33" x2="15.84" y2="56.83" gradientTransform="translate(0 -52)" gradientUnits="userSpaceOnUse"><stop offset="0" stop-color="#007d08"/><stop offset="1" stop-color="#00ab1b"/></linearGradient><linearGradient id="c" y1="72.36" x2="22.89" y2="72.36" gradientTransform="translate(0 -52)" gradientUnits="userSpaceOnUse"><stop offset="0" stop-color="#00ab1b"/><stop offset=".43" stop-color="#00a91a"/><stop offset=".65" stop-color="#00a117"/><stop offset=".83" stop-color="#009411"/><stop offset=".98" stop-color="#00810a"/><stop offset="1" stop-color="#007d08"/></linearGradient></defs><g clip-path="url(#a)"><path d="M40.1 2.9l-12.5 38-27.5-.8L3.3 3.4" transform="translate(0 5.65)" fill="url(#b)"/><path d="M22.3 39.1S8.8 19.8 8.9 3.6 0-2.6 0-2.6s6.7 35.2 16.2 45.3 6.1-3.6 6.1-3.6z" transform="translate(0 5.65)" style="isolation:isolate" opacity=".9" fill="url(#c)"/><path d="M29.5 44.45s-10.5 4.8-8.6-32.2l13.5-.9z" style="isolation:isolate" fill="#00ab1b" opacity=".91"/></g><path d="M45.6 23.35h-4.2v-2.2h4.2v-1.5c0-4.4.2-8.8 5.5-8.8a5.75 5.75 0 0 1 2.4.4l-.2 2.3a4.34 4.34 0 0 0-2.1-.5c-3.5 0-3.2 3.8-3.2 6.3v1.8h4.7v2.2H48v18.7h-2.6v-18.7zm14.1-7.8h-2.6v-3.5h2.6zm-2.5 5.6h2.6v20.9h-2.6zm7.8-9.9h2.6v30.8H65zm19.7 27.5a7.53 7.53 0 0 1-6.7 3.9c-6 0-6.9-4-6.9-5.9 0-7 7.5-7.4 12.9-7.4h.5v-1.1c0-3.6-1.3-5.4-4.8-5.4a11.61 11.61 0 0 0-6.2 1.7v-2.5a16.07 16.07 0 0 1 6.2-1.4c5.2 0 7.3 2.3 7.3 7.8v9.2a30.27 30.27 0 0 0 .2 4.4h-2.5v-3.3zm-.2-7.2h-.7c-4.5 0-9.8.5-9.8 5.1 0 2.8 2 3.8 4.4 3.8 6.1 0 6.2-5.3 6.2-7.6v-1.3zm33.2 10.5v-13.9c0-3-1.1-5.3-4.4-5.3-2.8 0-5.6 2.4-5.6 7.6v11.6h-2.6v-13.9c0-3-1.1-5.3-4.4-5.3-2.8 0-5.6 2.4-5.6 7.6v11.6h-2.6v-16a41 41 0 0 0-.2-4.9h2.5v3.5h.1c.8-1.4 2.1-4.1 6.5-4.1a5.24 5.24 0 0 1 5.5 4.4h.1a6.91 6.91 0 0 1 6.7-4.4c4.2 0 6.6 3 6.6 7v14.4zm21.3-.6a17.89 17.89 0 0 1-6.1 1.2c-6.9 0-9.5-4.7-9.5-11s3.5-11 8.8-11c5.9 0 8.3 4.8 8.3 10.4v1.3h-14.3c0 4.4 2.4 8 6.9 8a13.55 13.55 0 0 0 5.9-1.6v2.7zm-1.3-11.3c0-3.7-1.5-7.3-5.3-7.3s-6.2 3.8-6.2 7.3zm7-4.1a41 41 0 0 0-.2-4.9h2.5v3.7h.1c.9-1.9 2.4-4.2 6.8-4.2 5.2 0 7.1 3.4 7.1 8v13.4h-2.6v-12.7c0-3.9-1.4-6.5-5-6.5-4.7 0-6.2 4.1-6.2 7.6v11.6h-2.6l.1-16zm30.3-2.7h-4.8v13.6c0 1.9.7 3.4 2.8 3.4a6 6 0 0 0 2.4-.5l.2 2.1a10.67 10.67 0 0 1-3.2.6c-4.6 0-4.8-3.2-4.8-7v-12.2h-4.1v-2.2h4.1v-5.1l2.6-.9v6h4.8v2.2zm30.2 17c0 5.8-2.6 10.6-9.8 10.6a21.73 21.73 0 0 1-6.3-1.1l.2-2.6a14.53 14.53 0 0 0 6.2 1.5c6.7 0 7.2-4.8 7.2-10.8h-.1a6.56 6.56 0 0 1-6.4 4.1c-6.7 0-8.8-5.8-8.8-10.5 0-6.4 2.5-11 8.6-11 2.8 0 4.6.4 6.5 2.9h.1v-2.4h2.6zm-8.9-.5c4.7 0 6.4-4.4 6.4-8.3 0-5.1-1.5-8.7-6.2-8.7-4.9 0-6.2 4.7-6.2 8.7-.1 4.2 1.6 8.3 6 8.3zm14.3-14a31.09 31.09 0 0 0-.2-4.7h2.6v4h.1c.9-2.3 2.7-4.5 5.4-4.5a9 9 0 0 1 1.8.2v2.7a5.55 5.55 0 0 0-1.9-.2c-4.1 0-5.2 4.6-5.2 8.4v10.3h-2.6zm20.3-5.2c6.8 0 9.8 5.3 9.8 11s-3 11-9.8 11-9.8-5.3-9.8-11 3.1-11 9.8-11zm0 19.7c4.5 0 6.9-3.9 6.9-8.7s-2.4-8.7-6.9-8.7-6.9 3.9-6.9 8.7 2.4 8.7 6.9 8.7zm30.2-3.2a41 41 0 0 0 .2 4.9h-2.5v-3.7h-.1c-.9 1.9-2.4 4.2-6.8 4.2-5.2 0-7.1-3.5-7.1-8v-13.4h2.6v12.7c0 3.9 1.4 6.5 5 6.5 4.7 0 6.2-4.1 6.2-7.6v-11.6h2.6l-.1 16zm4.6-16h2.6l-.2 3.8h.1c.7-1.1 2.3-4.3 6.7-4.3 6.2 0 8.6 4.6 8.6 11 0 6.2-2.9 11-8.6 11a6.42 6.42 0 0 1-6.5-4.1h-.1v12.2h-2.6v-29.6zm8.8 1.7c-4.6 0-6.2 4.9-6.2 8.7s1.6 8.7 6.2 8.7c4.9 0 6.2-4.7 6.2-8.7s-1.3-8.7-6.2-8.7z" fill="#417505"/><path d="M30.1 37.25a3.9 3.9 0 0 1-3.9 3.9H9.5a3.9 3.9 0 0 1-3.9-3.9v-16.7a3.9 3.9 0 0 1 3.9-3.9h16.7a3.9 3.9 0 0 1 3.9 3.9z" stroke-miterlimit="10" stroke-width="1.97" stroke="#fff" fill="none"/><path d="M30.1 37.25a3.9 3.9 0 0 1-3.9 3.9H9.5a3.9 3.9 0 0 1-3.9-3.9v-16.7a3.9 3.9 0 0 1 3.9-3.9h16.7a3.9 3.9 0 0 1 3.9 3.9z" stroke="#1b8208" stroke-miterlimit="10" stroke-width="1.97" fill="none"/></svg>